<mxfile host="Electron" modified="2024-01-28T20:15:43.698Z" agent="Mozilla/5.0 (X11; Linux x86_64) AppleWebKit/537.36 (KHTML, like Gecko) draw.io/23.0.2 Chrome/120.0.6099.109 Electron/28.1.0 Safari/537.36" etag="4RFXSTMSn2t15nbDAluT" version="23.0.2" type="device">
  <diagram name="Page-1" id="4sGTdJ9AbjqVc7hCRNqy">
    <mxGraphModel dx="930" dy="490" grid="0" gridSize="10" guides="1" tooltips="1" connect="1" arrows="1" fold="1" page="1" pageScale="1" pageWidth="827" pageHeight="1169" background="#000000" math="0" shadow="0">
      <root>
        <mxCell id="0" />
        <mxCell id="1" parent="0" />
        <mxCell id="GdBnVWt3Ku-aik8DXqB9-4" value="" style="group" vertex="1" connectable="0" parent="1">
          <mxGeometry x="80" y="120" width="646.8499999999999" height="160" as="geometry" />
        </mxCell>
        <mxCell id="GdBnVWt3Ku-aik8DXqB9-2" value="" style="shape=image;verticalLabelPosition=bottom;labelBackgroundColor=default;verticalAlign=top;aspect=fixed;imageAspect=0;image=data:image/png,iVBORw0KGgoAAAANSUhEUgAAAp8AAAEeCAYAAADM7H7oAAAABHNCSVQICAgIfAhkiAAAIABJREFUeF7svVeXJEl6JfaFTK1K666qltNi5EEDC2IPz+GSALkvSz4sfyGfyJc9JBe7XGAADDASM9NqWpfWqWVkaMF7PwvPiIxUkVkRmSGudUdFhru5udk1c/frn4z9X3/7zzXr8xKLxaxQKNi//PKX9tVXX9n169ft448/ths3blisz8em7gsBISAEhIAQEAJCYJAQiA/UYEBC4/hEpVarWd8z60GaII1FCAgBISAEhIAQGHoEBoN8NhHOoZ9RASAEhIAQEAJCQAgIgR5GYDDIZw8DrK4JASEgBISAEBACQkAINBAYDPIp9brWtBAQAkJACAgBISAE+gKBwSCfgFqORX2x3tRJISAEhIAQEAJCYMgRGAzyKZvPIV/GGr4QEAJCQAgIASHQLwgMBvkk2iKg/bLm1E8hIASEgBAQAkJgiBEYHPI5xJOooQsBISAEhIAQEAJCoF8QEPnsl5lSP4WAEBACQkAICAEhMAAIiHwOwCRqCEJACAgBISAEhIAQ6BcERD77ZabUTyEgBISAEBACQkAIDAACIp8DMIkaghAQAkJACAgBISAE+gUBkc9+mSn1UwgIASEgBISAEBACA4CAyOcATKKGIASEgBAQAkJACAiBfkFA5LNfZkr9FAJCQAgIASEgBITAACAg8jkAk6ghCAEhIASEgBAQAkKgXxAQ+eyXmVI/hYAQEAJCQAgIASEwAAiIfA7AJGoIQkAICAEhIASEgBDoFwREPvtlptRPISAEhIAQEAJCQAgMAAIinwMwiRqCEBACQkAICAEhIAT6BYFkv3RU/eweArF60zX/jn7tc75YzWI11gp18GvXkfscoU1CQAgIASEgBISAENiFgMjn0C8IEMhY3GpWcWIZc0LJ3/yvuZB48jdrBIE5a9as2lJv6AEVAEJACAgBISAEhMAhCIh8HgLOcOwChawlMFSQzRiIZMQ4uRk0k+SSdJP/uaRzh6ASnd30dDjw0iiFgBAQAkJACAiB10FA5PN10BuQY0kwXZXuJNSsGqM0NOZbzQIxjZN+gmuSgu5WzQf5p1dVEQJCQAgIASEgBITAEQiIfB4B0ODvJqMEzayRXNagUK9YvFKCgLOEzZFKHdtjIKFQz/t3PIW/tXQGf21ohEJACAgBISAEOo+AGETnMe3tFimo9OJ69VBqZYuV8xbPb1k1v27V3KrVCmtWLuasCgIai4N0JkA4U2OWGJ2y2Og5i43NWSI1YbFEGpLSBJqiHWiTGp7SU56DxXX5UtEHMPSvEBACQkAICIHhRkDkc9DnPyKbOypzuhaxgFDi31ilYLXcihVXH1p55Tt8P7Py5pJVsK1cylmN5BPkkiQzBvKZnJix5MxVG5l9w8Zmb1py+rrFxs9bNQVSinpxkE7STMpM+R+dk9yJidLV5rJjXLp7s34JASEgBISAEBACg42AyOcAz6/TwBaBY7DvhKSyWrZqYctq60+s+PyPtvbkV1ZZW7BYEVaeOAbCTks5O6XgEsSxCjV8bdtKK8tWiD+wTPKXNjJ9zcaufWCj1z+y2Pl3LTFxAdr4MT84WIKiBzU0AmPRVt95ktSGd9MAT4KGJgSEgBAQAkJACOxCQORziBYE5ZDVGtTnNcg+s4uWe/4Hy3z791Z5+cAS2JSgbxF2Q8iJv5NQtWN5BO4YSGylaslSySoVUFjULy2/tBw+1Qe/tKk7f2kzb/0bS1x8z2LpWfDPJISdwUPeJaAuEZXqfYiWm4YqBISAEBACQmBfBEQ+94VlMDeS/iXhSFTZfGH5e39n2W//i9l6wVIQQsZHzVXqBsklbTyrLq2E0DJSo8cq+I1YoPB+T1UqViltWSyPYwtm5e2cZb/+ueVf/dZmfvA3NvXW/wAp6C0r2QjU8JS+BkW/qOdgriuNSggIASEgBITAcRAQ+TwOWn1WtwbvdKq2qeKOQXWesKKV1h7Y9rcgivf/ySxTsCQd18eTlhiftSq82EMAedLE4EAUCCOtNlHRP2CqiSokm7QDLZmNlCxe3LIESejGtq19/p+suDFvM+/+T5a88JGVk3BKYmak+n+MGkr3JKnc+2wxqbtCQAgIASEgBDqEgMhnh4DsvWYo5wy2l0FnXoIj0VPbvPdzyzz4ucUzJUtRqz4JR6JRSDzj0LWTWFI57oyTpDWMqiGxpOMQzD+xwZ2LktDTwws+mR6xSjprlWzW4tmq5R78Gl7zmzbzXs5Gr/3Myqlpl5rSxYnEkzaldD+SJLT3Vo16JASEgBAQAkKg2wiIfHYb4TNrnySyCvU5UmVCZZ7ML9vGg3+x7Ue/tto2pJW07RwfsdjIlNU8bic7GrIZhR/BRrPuq+7e65RgepajuiTTh+bxPmHfOZKwERDYanbd4EBv+WdfWqVctblyzcZu/YUVk/SGJ+GkCl6088yWhU4sBISAEBACQuCMERD5POMJ6N7pg6Kb6vNEJWvZ559Z/tFv4d2+aQk6EY2lrQaJZwzE00PJ+/8NlyAeHYIxhR5SCX9wFnfURTvxNOWapJcbZiCglVdf2yacjhJQ0Y+88ZfYDsNSJ6BBwtq9satlISAEhIAQEAJCoFcREPns1Zk5Sb9awhfFkbWoFitZcfmebdz7JeJ4vvDwSfExEMXRWfwx4kSQiTSrDKdEYsjc7R4g/jiFkkxKRNE4YoHaGBybYptWy5OAfmXrkJSeS6ctcfUnVonBCcntSUVAj4Ow6goBISAEhIAQGBQERD4HYSabyGLN/6ZXOikePNRzr2zz4a8sv/Al/YRAPOOWoo0n4imBmzr1JAGNkzjyt3unB1BASXejg+2R81BUhxWCvDQcRDV/LD2BE8ErPraBYPVVK7z82lZS/7edG4En/dy77ISfN6K4QeIqMjoIS1FjEAJCQAgIASFwFAIin0ch1Ov7d4hnsMd0Cui2mRVL1YqWfQV1+7PfI3Vmhb5BIT1mEs5F5HpONGnnyaPqjLP+deCwj9rPA5mOM0UVO1uGmj9ftvyTz2xrYs6mPxi32PQbdQencJYgew292OnHgR3QDiEgBISAEBACQqCfERD57OfZq/c9UEf+GwgcyVyCaTEz85Z59BuLrS0hvic04ukQQZ4ST5dWOpHEX1Gqy13Esh2WGTqwpyZV92S3ILnx8WkYi65aPIe49vd+YamJyzb9NsIvjV9xZ6jQiSAHDSQ0xAQdgGnREISAEBACQkAICIF9EODTX6WfEXCiR9pJr3bwPEgz40hpmS4XrfjyC6i8v7J42Qwml9C0T+KfJOhmpPDu9sAhAYW4NTU24ZGc4ttV2/7+H6z86lOLFTY99qin7vQSRtHtHql9ISAEhIAQEAJC4GwREPk8W/w7c3YnoEH+ye94tYjQSvOw9fy12XaefNMSY5MWgyo8BJHvzGnbaSUG28/46CQyHiEeKASvlZVFW//u7y23+hU0/siS5FJYEs/Q/0BC22lZdYSAEBACQkAICIF+REDksx9nraXPwWUIanbab4KIVsvbtv7qc1uf/xp52EHr0vBnT8HW8the7J0AB+dGQHobQaB5OMKTZ24+/85WHv3KCltPIfks1WknAzkpBmgnEFcbQkAICAEhIAR6GQGRz16enbb7RvEhZJpQt4PmWRx517cef2YxZBuimefI6IQlKP5EaTgXUd3d/TxDtC2tom9VJI9PjV0M6ndwzML3/2zlJ39ANPo11OB/DGfvvW/5tA2CKgoBISAEhIAQEAJ9gIDIZx9MUntdRK51ZBuqVRDXc+2Z5V587U5GyRHQuci73RuK1NtNrdLrvavFjQHcw310YgaOT/gTxHjj/q8s8+pL9DmP+J8x/0jt3tWJUONCQAgIASEgBM4cAZHPM5+CTnQgKN7pvFPbXrHSiz/hO+s2lvH0GEhdcDJqRNbsxDnba4Oe9JE6ner3WnrckuOQgkIQW115iRBMv0Lw++/hFJUPXvddJ8Lt9Vu1hIAQEAJCQAgIge4gIPLZHVxPudXgsJOAo1F8a95yz/6ElJpwMoLU05Kj0MinXKXt4ZXOqITY9XHYf6IvyCcPLbzF4IVfePaJFZ7+zhK5RfSQBqro4I4A9Oz6e0Yw6bRCQAgIASEgBAYeAZHPvpxisrN6QazMwNdgv1lYt9LqfajdHxuEncg0BOKJTEYssLx0u9DIyjNSvod4n03tdRgPOjnRmjOOU7i9KfoQQ5/iY1PoH35ul0GWf4eQUJ/AVhUpOVGvimohj7zIZ4enQ80JASEgBISAEDhzBEQ+z3wKTtoBsjkST2d1+L9ileyCZRdhQ1nCb0o9m0IrBfX3GZC5HZbLnpZhlxqCyMdSIxDKIgwTfIwqqy8t+/TXVlq7hzpFB2RPas+TwqTjhIAQEAJCQAgIgZ5CQOSzp6aj3c40JJUu0USJVwpW2XplhZWH7i8eg1q7EVA+MMDamdpT1lloPZ1njaLZ0WnvZ43q94WvLff098jK9MpJqpfuCWRD+/pXCAgBISAEhIAQOHUERD5PHfLOnbDqzjx0I6pYLU+V+1OrbK45aWNu9dPLZHSSMcH+k+r3kUn0FdLP7RLI5x+s8vJzZGfadlW9ihAQAkJACAgBITB4CIh89vmcehAjiA6rmWUrLD82aq0pVEwgrWXMc6f3bnF7UJDk5Cj7CgK69sqyj35rtvHMg+WHmJ+0Kah/enco6pkQEAJCQAgIASHQJgK9zU7aHMSwVXO1ejRoOvCUS1aGl3t+7TnCFTGuJz4JxP2kg0+zqp3ePL1Q2C2YC9BiNRFH/nfknIdTPuJ9mmXnv7LMo99bPL8VnJO8v/V+OwnF6M8kU1MvAKc+CAEhIASEgBDofwREPvt/Dq1azFp544VVtxcMXM6SiO0Zq6VARPchm9zW+jkDDGLIxsT/IKMFUR5FWKhpj0tquaJt3f9nq4GEJssFNypg/NLwH732OaZ9xnUGY9AphYAQEAJCQAgIgeMjIPJ5fMx65AjSMEgO3ct92XLrsPekyh3e4/HkGPaE2J5ONHu11Emw260iC1Mc6ndwUkSMmrfVe/+fVXLPrAyTghoknRwpaDU+WrK9Op3qlxAQAkJACAiBdhDQk7wdlHqsDqWAtIikTWcqVrLa1gsrgXzG4fhOlXvNRYj89DDxbMUUQT9j6RkPjB/DOLLwfM88/AeLFVbrNSkDpWc/QzVx9CpCQAgIASEgBIRAPyIg8tmHs1YFO+OH6uhYKWvFzVdWgsNRwlXuKewDTavH0+yb4dGOE27vCdp/gjfXCmZb3/+TlRe/s0SpYIm6nSjJZxReqm/Gpo4KASEgBISAEBACOwiIfPblYgh2j3EQ0HJuzQqw96wUysHRCMHbXZtNCeGZxvU8JrDwlGIuJHoeJcZH3HygtLpqm/d+bpWNBxhQziWfcSehGOCO8xGOkRPSMcFWdSEgBISAEBACZ4cAjehU+gwBxsCk4p3xPYuZBStvvwqSQRC2GLzc+7I4UYZtJ9OBjk5aGqLPYgaRo5B6Mzt71cZGxy05cRV1kqSe7ivfMCvo7YimfTkf6rQQEAJCQAgIgS4hIMlnl4DtWrNgXglICT1fOihYfnPBiluLwW+cZp4e35OyQRd/9lmph4ZKJJEZdMJSHE8W6veHv7DC/J8gCt1yIaeoZp9Nq7orBISAEBACQqAJAZHPflsOdUKZgG49AXvP0vpzZAfa8BBLsSRU7nA0isNlnILEPnI3AqOkR3swJ3D1e2IM6neo4CmbX12zHMIvlRe/h41rrj5jfTW6fltl6q8QEAJCQAgIga4hIPLZNWi71TBV7qRnIGvbq1aFs1ENIZbiDLEEwsa4maSdIYZmt/rQnXY9KH5dXFuLQYI7MmWxsbglsbn86ivLPvmtlUG2Y9V67vfudEOtCgEhIASEgBAQAl1EQDafXQS3e02TppWghV6AWhpe7iBnDLEUg72kSw9dOhrp3CkhjP7uXo9eu+W6IJMS2xDXE4YDGFRiZALMc8u933PP/2CJySs2iYD08cmrGFV4d+rlUKavjYsaEAJCQAgIASEwYAhI8tl3E1oD6UK8y1reclsvEYh9zZKYxTj103QRB/lkNEx++s420k0FglSXI6F0N4GA+YlRxADF8Eob67YN6SftP+OFjfrMkWxztCpCQAgIASEgBIRAPyAg8tkPs9TaRzgUxSs5K24sWjkPl3BKDePwEkfxVJT47XSsn3KgNwtnmaDePxwCxjUyazFkP2KYpeLifdt+9EurLN+zRLXg8U7p9c9xqwgBISAEhIAQEAK9j4DU7r0/R3t6SKV7vLhtlcySgX9ZkrOIAO3N9GtQVNEk0hUQ0PjoFHK9r1oR/ka5l59YcmzGZsYnLX7ubt2oQO9RexaKNggBISAEhIAQ6EEERD57cFKO6hJV06Xsumc1qjGWPFJSxhHfMwgP+e9geYJ7cHmYFcRANqu1jBVyNdt68htIQydsamTcqhNXwpidcTeLUI9CUvuFgBAQAkJACAiB00ZA4qLTRvy45/NMPrs/CTBOqtyruZD33OPKx5sJJwlY8+e4J+2h+h7TlCp4jA/e/PHRMUtDE1/L5Gz7/i8sixBM6dKmdzjm5BO1+y7OVA/hra4IASEgBISAEOgyAiKfXQa4E80zm1H04V/xSh7kkyGWMu7lzmCYMUZf3ymR9G8QpICBeNJ5it7vaeR+H4H9ZwrDra5t2to3/9W2H/8W4ZhKYfSIcepEVUUICAEhIASEgBDoSQREPntyWg7uFCeMzkb5TUg+S2Wj1JMhloKn+8HH9fseDzzPApIdR/zPxAR+Y+yVjTVb/OL/sdLLz+GAlLMknbEQaF8EtN9nXP0XAkJACAiBQUVA5LMPZtZTZXoJNo21wrqVYe8ZQ6x1ZjZCLCLIRlHLqw2CtLM+3P2+MMgqnKsMsT5TIKApjnn5uS39/v+w6vwXFqtsgZNWIqq6XwvaJgSEgBAQAkJACJwhAiKfZwh+u6duUM9APkvZVStnVzz0UCKBbYjvGQVcb7fNvqwHdXoUQioWR+rN9AyC0GP42FhZuGern/2fVlz4AkHpGX5qwEl4X06gOi0EhIAQEAJCgN4ZKr2NAONd1p2HapTogWkVNl4ixvyqh8KMIa8mzT25r+Z1B7vEPG89w89T7T4Coe+cpZBVNAGv/+KLr23ti/9kxVefIxRVxnGJktyTtkckfrAR0uiEgBAQAkJACPQ2Agq11Nvz44yJxJKxPZHvx+LIa55dB/ks5+ln5M5GcEGi0h0/SD6HiGKBXcaSI4j5OYckR2tWzSPb6PPPYe4Zt5lKyVLXPjQDOa3WYSFKXoaApPf6slb/hIAQEAJCYHgREPnsi7kP9pzUJMdLeeR0X3JVM7NpVuEBHqun1fSNgy/83DVj9PKPUfc+Novt65ZE0P38s0+hes/bdDlr6Rs/tdjYOSekLimml5KKEBACQkAICAEhcGYIiHyeGfTtnjhkOw+ad7CnwpqVt5chAUVmIw8uz8xGDZekdlsdpHokoPEUwLBxS8eyVkIWpOLzb2wL6Z+mSEBvgoCOX7JafAQwDhk7H6SJ1liEgBAQAkJgIBAQ+ezpaQyWipEzURz5yyvZNXzWXchJZyPGvtxVhkjrHo07ePlDApqaQKglhp1aN4RCtfzLhwhHlbWp/KaN3fzYknNvWCWBjEhu6oyIqcAqmIUGvTwNGzxkgPLE9/RVoc4JASEgBIRAfyMg8tkP8wcv7xrUxQkrWwnxPa2wFeR3kHq61K9u7lmLgqsPEQElbWQA/rgz0KTV0skQASCxgQxQVSsuztt69j+7tHjqzf/Okud/YOXUNIhnAh/6zlctBQcm96JHcRrqHlzRlvoOfQkBISAEhIAQEAIdQUDksyMwdrGROqEk/aSnO8lnrVgyRliCrhlMyV3dh7pQYglnd5BGooSSHLX4RMqSIKDxbMEqW1lb/+YfLbf23C68/9eWuvpjOCJdsASkxpQqk2YmcCChrpB0BlHqUGOqwQsBISAEhIAQ6BYCIp/dQrbD7ZJexarbltuEpzuYFrXtsRinb4jEnEdgusPBySKBjXvBJxByKZuxGuxA80/v2cv1Vzb79mObe/u/t9T0DSsmJl2qHEwb6up3eCY1ogcccVLtFgJCQAgIASEgBI6FgMjnseA67cp1Ygk391itbNXimhVAPimlS0LgGYPk0+0U/TPk4s+WqYFFZ1DHp8cg4UQs1CTU8NtQsq9nbOmT/2yZV/fs8gd/Y2M3PrRS+pyVYQtagb0oj3OivwPnYdg27YukpQrjdNoXic4nBISAEBACfYaAyGcvT5hzT7IgfkpWK2SsmFn1zEaMrkTpXCCfrMdftH6UJDSgRmwYIRVSTaQfjY9RDb9lJajhGY6p+vJ7e7b60sZu/chm3vrYUpfeh0f8RZeYBjIPm1D8RYck2oWSjYYWgTPwb5D+UJ11OQPOQUVAHTUVISAEhIAQEAL7ISDyuR8qPbbNKSaCy1cyC5B+ZuBWA8mnOxvVJW/4ioHwSPbZmLgQUJ7q9EAhYwnE+UQ++GSy6NmPSlvIFpXPWO7hryy/9LmNXfmhTd36M5u88h4iNl2yQqzhFe8ElISzLt0M3xHJJ+Wn/zzPSMIKqakIaI9dQeqOEBACQkAI9BICIp+9NBt7+kLGQzEnZG/VEtJqLiCzURnxKrE5AVUynY3qRTLPFvDqTNwJupNBSiURhimZtBTMFUYS25Ak5ywPKWhlI2P57K+RlvN7y8zdtPErP7CRq/jM3bLKyAyOi2xCXQbKxvxfpvgM5DacuwZj3Jhyygcw9K8QEAJCQAgIgQMQEPk8AJie2Oy8E8wJHtiUfBY35i0GZyOSzwrsGCmBc1WwRJ4HT1cUfsoZKPGCxJg2oGl8JycsPVK0UjFr5WLZbHMZZg34LH9vyWf/aqm5G5a6cMfS525aauY2gvpPwS40BdkmogxQIe9Eky8AdS/7OvH0X/KYP3hOtEcICIHXQ0A3/dfDT0efOQIin2c+BYd3gNI1J5jIVZ7fhOSTojcI8JDayEMDhUJf7WCRyN+BZuEPkdIIoKZvYAmJMWSUsJuF4SykoAmkioqnclYrbSMoPWSZ2W0rZO9bcem+xV9+YrGpy5acecNG8J2exGf8AjzpZ602OmW15DjiNI0gZmhDCk1FvIoQEAJCoGsI+L2/fqfx+3z0MNBNv2uYq+GOIiDy2VE4O9HYDqP0G0rNPd3xqRStvLniwjZyJpfe1W84vN3Q4jMcGYioxKGtcxHdlCNJcZ2sx0Hb4WQUi4NEJtPIkgSb0DKIaLmCD73jN62ATwze8YWRcUshfNPIBMjnOPLFg4TGx2YsMToNSeo4jiWRHcUEpfBugDbZbpOdaDRfrT3b+d089Y03i53dNK1QEQJnjUCwp456wUXbuLairZEFemQnvbNdyRtONH3NJlZsoEZtWCJtyRS0MXgBjrLghanQfeJEIOugU0VA5PNU4T7qZLuJp99k/D/o2iGVq2yvuZI3nkQ9urvX9/M7aHwDvalJJePY7C3RTbnpgUli7wQRlwLiVyVwQ4+lcDOvFkE+CyD9BUuU4FJEc4dt5I3PQEW/9AIEk4eAXKZHwVkn8D0GiTQlqPgbktQEpKFxBGONgdx6IoAj1PC7Hxfsz961EI2HDk4qQuB0EGhehzQyqf9u4TfB1KSxkX/5vatl3Vd5vZ1OxwfrLLiH1I17dsYVhz166uI7NnbtR1aCg2TYH6ErAjpYC2DwRiPy2XNzus+tGc5Gpe0VOMhseyrNOFTFdWvPlt6HG06zRLTnhtcTHWq5Me/8pBQUD006cxFjkNAYnIjSMHmg2UMVRBTGoTC4pQMYPrQTRfirimWcDvJTQVvu48R54jd4Z9T8UZRxn5n3YxsK/brD034VewJXdWLQEGilMHzJ9fXIb6zDsO5pvsKtjdrRWt9PWh9JRQcNq26OZ4/WhPcWaF4m4IA6duVdqybG/MXAHR5bJ62bHVPbQuCECIh8nhC4UzuMkoJyHikiEWapUkXAdNx0oNJtlSjs7k+4+wSCemo9HZgTUYJANZc/WJnClMH8Uww+P2FxikDh/JUE+6zAFKJW4e8SYq/CVhSwczcLnwHNHPGg50G0vUqyWn+GR8Iitsc2onZY96B2BgZ8DaTnESDNTNLrEauRjo/VFMxORiZxrQRtzM4AIg1Ms/RTWpmTzW8Thryvk9TXYAKUmjjHB4K3yW3+F28YulGcDGcddWoIiHyeGtRtnqhFquXxO2GDWEJmIyc0rsHlLaalYpvNq1o7CPDOTbKJf/FnIPoko5gL2tpiEuJ4C6CKnXf5OKSjDLrEOanCFiuQxrq5hG89/ElARWQJYaBSE7OWGh2HEImPl+hBjl40H173qG9nFKojBF4XgaAk332vcbtzt0nGC1cKCRxm37Cxi29aFeYmuwrvV6/bAR2/LwI0FarBvrw2dhEvAFO4B+Hu5LeKPTLSfY/XRiFw1giIfJ71DDSfv/5222wV5dLLcsmKW8tB5Q5OEnK6g+40OaUE6rN7MIdTnl4aeO/0JXrYRthRvsPA8Sx8kIZg8vwV1QDhbHoZqPABAHLKdkg/ebyrww6V+KBufNRiY1etBttRSpAY5aBRmh7hIp9NuOjPbiOw9x6C5LNYjjGI6rnCq3C0S82+ZZULH1g5Bbvnemks09YWREdfd852TB84A4xfjHtLMlY1RIDGFjwgWiF/3RPqeCHQBQREPrsA6us02Uw82Y7bTMHWsLy1FCSfvHcfcP/WPed1kI+OJYrNAFOyyadtQDd8hTq+BRu4ra5t90Zi9ET1P/DBPtY7fG5ANeFaH8Pjo1IP2RTknqEfzXzTH/kHzL+fXEUIdBABd3bcVUh2qH4J1p5xLM4E/iPpibsqPpQDlyg1OR3s31A2RRMfH3i4swQ88YrLPw4EfiiR0qB7GAGRzx6bnN0G+nijhUq3giDoeTgcJXBzcbt+V8nyLtN6p9FtvTPTuQ+OdcYX9jThju371A7dOHDH4b3cLfU8vK72CoFFbSdOAAAgAElEQVTTRCAs6SDXbz4viU/r3ejAfh2qBTjwKO04DIHoXnPCe85hTWufEOgGAiKf3UC1Q22S1sRqjDu5YeVcxtK4uycQQxKxfLinQ2dRMz2FgE8rnyCa356aF3Xm9RCgxFOk8/UwPO2j62ZgVYb20NydNvoDfz6Rzx6bYtoHRtJPV6NA5V7KrsPjPXQ0htiRKoOHQKRIE+UcvLkd9BGJVA7oDFO9j0+xgGcQ/A70Qjyg83xGwzo+kzno6eji/rBY+Ve8brt21LjoHcxsDQmmi6Q8b7/jhkiVQGlnZDlF/+p4KWeWWTFE+gmheBBmiWF5VAYLAY9qUJ/7IHDAovd1TxvPJp2a79QCGKzZ793R0ARkt5Vm89pr3Jj58tQuCR2i23nHJvbMrng8mysgnpUSyaeKEOgcAscmn/tZuPHtqFwq29r6mpVKRTt//qKNjiDN4FEFV1QFQXI3NjYsk9myGzduImnM3lARHupmGO5Y9dRz0Y2G5JMxPquw90ySfCKnO9M2Eg+Z7R+1uPppf1jcfOkI1xeNKujUEa2E1u9+Gpv62t8I8H7coD577zvcUg8p36Zq9syIVH9PxKn3nuGcwpNmGB6+pw7v0J+wOZ7LicAg8Szhrejlqxf2+PFjkMgMnpn73164hFuXMauSsD57Fo6vVOr65RP1ZsAOqjsbFZBWk4gyok+NaUVUBhOB+sXRIKGDOUyNqv8RaEjjw1j2igz6f4xDPYKd9109b4Z6HXRx8K9NPqkyX1xcsKdPnloZUsy5uTlLp+AUs09xAtVCP5OQ5E1PTdvU1KR99+239urVKysjawxJ7bAXqrHo6V7IroUAwpBThyDzw46Mxi8EhECvICDi2SszoX4Igf5B4LXJJyWdDx8+slwuZ9euXbMLFy6CIO1uNl4X32+srdjSwrzlshkgxFiItPFE0sKJCbt9+zbCCMXt008+tc3NTbcDHb4S6Lnb9PFP5GqsweazlN1wxVYVsFb3s4kdPqA0YiEgBISAEBACQqBPETgx+aRckiEYHj9+YgsLizYLieeVK1fhOLTXjJREslIs2Oef/N5+/7vf2DIkpUZyWRdukoBOTk7a+x98YI+fPAaZfWjF4rAZODcRz/piqiHweKWwZdX8RuCjzDGOGJ8Ks9SnV5u6LQSEgBAQAkJACOzK4dc2HG67CZXwVmbbvvvuO0unU3AWumFjY/s7GVHCubmxbp/+4Xf26P63kJJuN4zY6wQ0kUiAvF5xp6MvvvjM1tbWrQL1+7AWYlatFq1a2LBYIQSXTyGXOMlnEIsOKzIatxAQAkJACJwKAjJ/OxWYh/EkJ5Z8Umz5/PkzW19bs/Pnztk5SD69MN2g64xDoco92IW+srXVZa87NzMDdXsjSwbtO1lvJJ22Dz/8CHafL+3Fi2dWKBR32hn8P5rygDuMwKeUt0puy4XEiETlAeZd4hyJjAcfFI1QCAgBISAEThsBPGiiyAavQRJOu9c6Xx8hsHtdkSii8+ETRJLR7+YxkVqWEFrp/v0HloLU8+LFCzYyMrLvsCkhrVaqNg9HomKxaJcvX7YZkM9Ek+0iiacXfF+/fs2mJqfsGRyYcrlsiB1Xl47ue4IB2RjRdZJOzgBDzcdKWSvD2Yj76OTeoPSNvwZk+BqGEBACQkAI9BAC/izy//W86aFpGZiu7DLQjJZYAfaZ+XzB1d5Uh4+NjkK1ng6klFJKOAbls1l7+eKpXbpEMjnrxJFEsznMUhkhmLitmN+2Z0+fIoZnCt7w5y0Ju9BSESGV0HasKXQQzz8xPm7X4bj0/MUTOB6teduJBPcMyQXgw8Q/CLNUKwZnI8YYR1AAx9hhGAIyPjBX2LEG0nCy0w3/WMCpshAQAh1HIET57HizalAIAIEd8kkOWATpfAKJ45MnT6DyzoNk0r7QPAzSu++9Z+egMmfmIopLNxFQfmtj0966exeEcQy8KAhR/WUJXtprq2v2u9/8xja3NuE0k7evvvzcylCj//EPn9jDx8/s/MXL9g7avHb9BghqYy5IbG9cu2HfffWVZdbh9X4ddp9JdHPACVcYXlB0OPGArr1aWLdafpUcnencA/kcdCB0WWKGeS1FL1wDvvA130JACAgBITB0CCRdmgb2t76+br/+za9teWnJ7t59095//30bHx+1dWQfeoLg8d998439xV/+ZRDKof7K8pJVSwWbmpiErWZd5V5/TtLmc2Jy3H740YdWLBft6cMH9sWnVRDYD+zPPv4Lm0UGpBFIU6dnITFtKXzkzs3OWBXHbSHkEtX7yTQdmYbhIRzIp6fPRLD9Sn7Lyrl1RBDAbzJQlcFFwC9DRoCAuQXnf1gk/YM7oxqZEBACQkAIHIBA0r3WIZ38xS/+0e7d+95+8uOf2XvvvuvB4uN1wjMPe86VlRV4uoAAggjVEGJpE6SUD8mRkZQxUDxVw1QaurwGO0ZBSK9CfV6pFO3Jg/s4tGq3ISW98+abNjFNNX3cVe6tlLKCeuNQvSdxnm2k3GT2pLEDOj94m4EGsGM25Rg83Uk+qwgyj4yjnlZTZZARaFwJTFfo6TVVhIAQEAJCQAgMIAJx2nV+8/VX9sc//qt7rL/99lvIzX4Ogra4OwitQSLKQPKucqeNJshRFSQ0m92GRC7uHurxut2mC2yignpJqMv5EGXqzRTI6OWr12xiagqSzBRsGGnviQdsEPM0DsMzmM5LcZyfDkdMvblLLz+AkxANyXPYo/hXuWC1QgZB5oP1H7GSHeAAT76GJgSEgBAQAkJgSBBIklh++ukfbYMhk376sVUgCV2E6r2Qz8PhZ8vWEJ9zdHTM7ty5G0gRyCGVwySmJEQuHW0hkAE76hGrtr2dsZcvX9o0HIdm5uA8lAoSvBoJFoU9zQafddBTIK0JOCeVkK6zAk/5qOrAzwnx8MEimBLIZxmST/gdWc1DeyYdLkqYGzKygUdEAxQCQkAICAEhIAQGDIHk6vKyPXp0320wGTZpA8Hdt0A6aX9GCee5uXOQhJ63ixcu7AzdwydhH6WgIaZnKx0KErwKNq/C8Wgd8T3fevs9qNMn4bAEJoXjIylpqzTPCVZdIlqBen8/cjpgc7AzHBgiuOkC1a6lUsaKdDgiIBQQI7sRabjyKA/q7GtcQkAICAEhIASGA4Hk6sqSZWHz+fbbP7CrV67ZLJyA6HGegjqdYY/G4MnOMEsUyTGdJlkjSSfV8lU6xcCzPYjrGoAFAV7MyuWSvXr5wqWo1+HVPgYJalT2k2ZG8T4ZdN4Dz1Oyuq9UdVAnJ1DyGsSd1SLIJ5yNuIV83eJp/E3VO8o+0uJBRUTjEgJCQAgIASEgBAYLgWQ2l4Nzi9lVkMM7d+/A0ehcnVAysDmdHqBkJ9mhKhi/nAzhv5GRNFTiVIsjXuc+ZAhyU3cWevb0iavmr1296sdQurcNe1GSyxGQUe5rlpuyfdp5ktjS9jM5VF7ewQErBpLvOd1h80lzWka8apUQD9Yy1GiEgBAQAkJACAiBYUEgnoYNJp1/KJV0pxaGe6mXoF43y0FyScejSrni5JMORhMIsUR7zGKhBLLaOGbnYGzK47hnz57a9NQMHJbOWyqVdq/3+VfztrCwAMkoiGtTcZILSScJcRHEdXwCXu+QujYHrt91wID9IMFkjMdYpWSx3IbFi3DqoqQZeLsFwi6aPmCD13CEgBAQAkJACAiBoUAgfvHiJXigT7sDEcnlToFHEKWT9Gp/+eKFp9JkHS+QiM6BTNIJJpeDYwyIIqlR+LAC1eZVHJu1paUFBJTHOSZh7wkRHuOJLiFGKKWiSZDe1hLDcZuI71mpxW0SIZlGRhjjc3iKK97hbFTNb3qYJTd/RU53ikBh7ICdQTU/PIhopEJACAgBISAEhMAgIRBn+KO7b71nSyurtoW4mmVIMymApKf5BjIYPXr8xJ4+e26zCMM0OjYGZTrcXkCIKMlMgxhmQE7zESl15TClly7AdDrKkEkknklIPXOQaH7//ff4O+U53qM4og1AIduDDSkD2FMlPwlSHAdBJQke/BJSmZF8x8p5iI0RRxVhloKoedQlouHVgORTBHTw14NGKASEgBAQAkJgMBFITk5O2f/41/+z/Ze//Vv75NPPEdMz6w5GDCq/sroK9foEMhP9wK6ALIZC5W/MpiGVPA8CmslsW3Y7i6xEzFYUSBGJZwJR4hkb9IMPf2oZODQxbSdDOFGN/s6d2wi9NLNbiUzCCpJZhbPNK4RmOnfhvIdnitVTfA4m/M2jIsGuuk2sFfOI8Zl1W1ym1Ywl0lbG5jikwQ3p8uAjohEKASEgBISAEBACg4eAB928eeOG/cf//T+C9L3ygPIskwgGf/v2bfd+Z7D41jI+PmG33rgNUvkYedxX7MqVKw1JJjMhgSzRZvM//K//mz16+NCy9Hi/ecOuIOsRCe1OnM8mIR7tTXn++YVX9t77H7ldqXvcsLEhkH6SfsZAvitQtxvsPTlyptak17+KEBACQkAICAEhIAQGAQFnlXTomZuds0mQPQ+nhELCQ9K5L/EBSWSopXfeeccePnrozkO379xxwsoS8UQeOzM9bR988IHHBaUKPg4Hp+BFzxPvluOVkW3pwYMHXvfum3edvDKo+rBI+xhKKQ7yWS5sI6f7psXpZOTcG/aew2B54KtHRQgIASEgBISAEBhkBHZEmiSgIZ5nO8MNIYEo7WT8zg04CC0vr8C2M5DP5hboQZ9GyCQWKuz3hAwiuQKxIuktFgr2+RdfIP/7W3bp0mVLI8tRk2C0nY71dR0P2l8rWym/js+Gk3ja1xKz8B8ZqFhoX0+yOi8EhIAQEAI9iYBH3EFpN8IO69PM0CVpKsdC4Pj63Cb+Q1L53g/e8xzvLxBMnqk0w0SgD/V6URCmg8IEBTcbEE84LT16/BhtZO2jj35otEX1TEfDVqpZxPdcddV78HRPWtXjrXJ5Uzba/oUxbNBpvEJACAgBISAETorAQTwlai8ipeQ50WcILAJPCuehx+015jy0emOnyzCBPiWfjAG6hDSdz58/tzfffBPqeoQGaiqBgB78ZlCD1HMTOeS//uZbe/+DD+3mzTdsBN7x0VvIHmlpm33st2rk61V4ulcKGwiyX0CAfSxwOBvVQD5j0L8HebOkn/02r+qvEBACQkAI9B4CHsscZoQVhH6kBjeXg28K/FIYiadZ+smY5Gvra+ApGx6ffBTReObOwVSRISTrwqHeG11v9+g1yGegQqNjo3bnzl2EaKrY/Py8jY2N2w04FrUzIa6Gh33nJnLJ379/3z3gf/SjH9k4Qjr5a0WkYa6r5nsbytfvXYzu7ZVcyG6EuEpViDkr8PanvWfcdfA8BzDTq9brg60WhIAQEAJCYGgRoNBrdW3NHabXQSrnX71w08OrVy4jWk+DGlXBbehYvby07FkaR0ZHEQ1o2V69emlvwOma5oftqumHFux9Bv7aem3yoHNzs/bm3btIzTnnsTyriBV6VInE28ySlMtD1YyGfvLjH8O7fs6J57DyKwaWr8DeE+FOoW6nwxHzuePt7ChAtV8ICAEhIASEgBBoEwE8V5mlESZ/W5sbSAUOgrm8uEu4QxnYyuqyfffdN55w5/LlK3YbhJNhJFdBWr/88k/gPAiLeLBit82+DF+1E0s+d0EFgnT+/EUbHx/HRJbaksxFSmS2MzExZR/CI34OE0op37BK9jzMEjIb1eDt7t7tXNAu0o9U7Vrhw3eJasRCQAgIASFwNAKRqjSqGalMwTacHVJr2GiFqvXz5+dceDaJyDovnj8Jj9wmJsnn8KMH920dcc+vf3jVLiL+eDo9Aofoi7a4eM4+/eQTe/edt2xi/DYa5nmCPG9YOczRc9SocWzyWduP4teJ0tj4pEHr7sVDBB1W6ouA9qHTU8FGFKYXO6GFdh3auqYOa7eP9yXc0x3ks5jxRJpu8+lxTiPy2ceDU9eFgBAQAkJACHQFATwjd+IRBkLCpDU1EJFKOQjEGB7SbTmD/Zo/VpOJpCdySXI76vND+hi5+DL2+KvnT2ETWrRx2HmmXR1fszRCRo6PpiEN3bJFxCW/RVPDeDo8qr2GylEIHJt8to3qSdE/6XFHjbTX94NjxqoFxPeEyh3ZjRL87eQzAcgjJj+s4PT65Kl/QkAICAEhcPYIRM/ImlVgu5bL5OAMveRqcdpz0qxvfGyiLtRplpDxuPqxTY/ZCuw9t7a24HNRtTSIqhcXn9Y8iyPt4zY2Vj0zIw3kgrry7FHohx4cn3z2w6j6sI/+1lUpgnyuWRWST67rVGIEdp8gn+KcfTij6rIQEAJCQAicOgIgilR7byKt9zdffmlPnj6BE9EVj0V+8+Yt+/DDD+GlPnNotyhErYKxksCW4QmfRNxDEtigh6R0FGEP6Y+Bc5UhWWWhaj+o25tJ7aGnGeqdr+1wNNTodXDwHmAeYZaqVLuX8FbFhR5LYTFTAa8iBISAEBACQkAIHI5AIIUlEMZHjx7YH//4B4ROuopU4Dfgsf7Q/v7v/isyMs4jyk61bgd6cGuM5+MqevxPh1+PzuP0E3sifknBkHsDNxNOSYsORrWxR5LPdlA6hTpc1pUS02oisxE83Y0zA/JpNbwfxLhBRQgIASEgBISAENiDAKWOThWrzgWXFhftm6++shQcJ9566y1bWFzwbSSJ5RKfp0dIJ7kbHJLSzgTt31ylHpXwN6JE+tY47UbZHp1W6taiTZX15wEIiHweAMxpb/bLBlJPK2yFMEvgnTCPPu1u6HxCQAgIASEgBPoSASrEC/ltxOB8YYuIw3n3rbftwoVLHlHnr//m3yNO56hduwbnIDgftVPokDQGT/gcwiyVK2VoIstkm0gHTmFRBeQzaZNTM+7lHqSipKNHENt2TjwEdUQ+e2SSaStSwUVTRpgll+Rj/dLmJKQf7ZFOqhtCQAgIASEgBHoMASaeZjRsPkc3kC3x+bOnHr/zOojmCLzUSTo//vjP3dt9YmzSe98Ih8TnLG06g10n93ELpZ4klFevXrcHD+/ZFtKHl0BAR0BIK2U4M+ULnunoCmJ/JtwxWOU4CIh8HgetbtV1Q+WqFbJQuUP1zpzutWRkV6Lw8t2CXe0KASEgBIRA/yMA2olBwEGoUrLVlVVkW1wAMWQ8zkt4noJIwkhzanraSSZL5BhEgppHYpw1ZDrKZrPuWLSK7EXjkJROTk6BgNbs7pt3bXFpAZmQ1mx9bd1mPcD8qi0h49GtW2/YRZyDJQiKJPVsdzWJfLaLVDfq+Tqte8jB072YXYMoP+/kM5FIIdRS69tUtLD1jtWN6VCbQkAICAEh0H8IeExPCHEKhQLSYC7a5vq6ZyOamzsHphm3ChwpSECbn5x0OtpCPnfag66ur9rMzJw7Ib18+Qrxyjftzu07lkY6zUuXLtt77/3AlkFqnz59iu8V285kocqfRHrNN/A9UVe59x9uZ9ljkc+zQt95ZEibyTjysSqdjdatWi4ahJ4e3zO8pbkCYKfuWXVX5xUCQkAICAEh0IsIUJ7JFN257W0nnyUEhT93/gJI5KRvZ7D5ZmcgV9FjUxrq+JnZWdQbc1tQ1hoZGYHwJxnsQut17r75NuqtWDaf9+HPnhuxazduwJ70vDsc0WG4UdwNqem3/twPAZHP/VA51W1wNIqVLVnegs0ngtXCEQ+8E+QTYZacoPo/XpSyawcK/SEEhIAQEAJCoIEApJuZjQ1bg2QyBc3hRTgapZBBkQ9SdwaiESdKeI4yiozZ+OSETUzW0zJiX0jDGep4HM86rRwbn7Cro6OI6VmGFBXPaLSVRJajOONwaw5OhIDI54lge82DeB241JP2nLwgQEALm1ZBmKUYN2FWguSTgSNUhIAQEAJCQAgIgcMQqIAYrq2twuFow0bHxiD5PL9DOCNS2Xp82M5ncKCQO0QyIqr1PQwqz2dyKp20kAy8tSX9Pi4Ckg0fF7GO1ee7GJd6+FRyCC7PUEtgm3FGmI9TlE/PI+xXiqOOoa6GhIAQEAJCYMAQgGNQEfaea6tQjUP1PgFnoblZ2Ht6wfOUasSdyPB7x+5JXlo+QfBTFw5F7ew9VFtOiIAknycE7nUOi8yeI887Bqctb6+ZFbeDHJRhG/zNC1kY8G+IH/Y6Z9SxQkAICAEhIAQGF4FthEJaW1tBGKSiTcOzfXKKIZX4BD26SL5zNEadriHJZ6cRbaO9BpkMb1uJagnkc9Vq5Zx7uvs/tDfBdeMhJMLLV+O7jXOoihAQAkJACAiBwUcAJmxwlqDnOr3cY7DDnJqegep93POvR7aeg49Df41Qks8zm69gBM34nqnytlWyqxavlqltB/fktNT3UxWwo54PnaWxc91E5cx6rxMLASEgBISAEOgFBKqVKmJvrsDec9UdgSanpt1jnarz4InengS0F8ZycB9oojcI4wgjlOTz4Jnu/h4KNfFmVi0VEGZpy3O6+4saPN0p9oQZi4oQEAJCQAgIASGwLwLwjAAfq5RKtsFA8duIvzk+bjOQfHKHE89DbD33bbJHNzZMA05KDIJ/Sa8MT+TzLGbC1wCuGEo1ae9ZyEDyiexGJJ8UasboT+cJvywEcjjpYjuLwemcQkAICAEhIAS6j4ATMjxLae9JySeDzNPZaHp6Cqp4+kwMjqSQaDJM1HHsU51P+DEEimZ+jRSi3Z+dw88g8nk4Pl3bG+hkuDQqyOdezm95mKVY3d6T8cNUhIAQEAJCQAgIgf0QCBFjalaxdeRz39hYc0knnY1IQFl2B3/fr43+2VYs5O3+/fu2vo5MiAwI3lToqe/uIk2fsDuGtKHb9uLFc1taXkKc0tJrDZhklilHGZDHg/LUz3eSRmXzeRLUOnJMsOmMQdxZzrxCnM8Nb5WxxDxwLd9U3OOd0lFcZP53vUgQ2sBCfwkBISAEhMBQIRBJzRgruwYitg4v963NDSdEk1C7jyOvu9epiwlD7nf+7j+YyAWYf/7rb752XsCsSs18IIwzRMaJRsdhcjt9SpJI053JbNnCwryVigW7cuUK/Er2E24dLCVm9B3yEDdvAMkvQcJcKVcQ93TEZpHCNI2sUIeV/eKVi3wehli39mEiIzF4tUJP9yWrlRBmiXNPZ6Nmotm8mrrVH7UrBISAEBACQqCvEIBZGp6VpUrZySdV7yPpUZuCsxFTZPJxGrhmHzLO+jyQZDJ4/r3790AeF+yDDz70nPLuxb9fAdlk4XFRVJ10mtmeLtgWCOizZ08tkYzb5UuXmngGkGrDLrZarVkGMVS//fprW5p/6WYOt+68bT/92Z/ZHM5BwHfMHPb0Yy+xPWAE+41K2zqOACeIYZYyiPGJnF3B2Sh4utPbKGR+7/hZ1aAQEAJCQAgIgf5HAA9N2nkys1Ehn7NxZDaanpoKaTX7dHQh2H3ghpTqLi0v27fffusSy0uXLlo6nd6tCa2Pswip5osXL2x+fn6XWj6WiEM6OYdjL7kE9cnjx1DFZ4+NDmVi6VTKrly+5PKxRw+/t3ye7dDpy3NAeZs0D1hYXLQXL19YGS8G+8nSWE/k89hT0IED6qqAGlTulVLOCpklkM96eM9Ysr6w8LZWr9eBM6oJISAEhIAQEAKDhQCENJmtLdtY3/C868zVPjkJySD1731c+OjnJ5fL2zdffwXBVMxu375jI8gvvx+ZY5xTZnf619/91r6Ber5cKu/iD4lkAtLPi4h/Om2LS0uQgD47Pr+AP8oYTBpu3b5t4/imeeCVS5d9245sGZ1eQT/++Mff25dffuFzclAR+TwImS5v56URx4VThaNRZRupNSEExQuK22JQ4umG0vXrZ5e9Z5f7peaFgBAQAkJACPQDAgxHyBBLW1ub/tSchKPR2MQEut6/1CbyTi+Vira8smwP7n9v777zjnvwJ/bYagbaVyqW3Kbz66/+FByvQAIbhBBEAmp15ru/eDFILR88eABim2t7il2J78Iw2H1WKrYIyeYIgvifg/3paJO9ZwkOTfPzr0CAv4QpxGq9fXrZ730Z6N8Zahu23q0Yh+Qznl22WmHTL5UYDIOrmKS96TQ5cc2f3h2TeiYEhIAQEAJCoFsINEgLMxtVbWV51XKI75mAv8QEUmqOTYz743KHfHWrIx1ul049fPZHzjl0Dnr29DEkoBV7443b7jjUOqpIOVpErPClpUWouYt2+cplqObhAOSRcxIgfgyvFHdJJdXvM9OzLp1chjqf4tW24onzRAjHQwJKSfPi4gIcny66/alH6KmjnYfpw+rKkqveL125aqlUGvv2Ek9CJ/LZ4QXUVnNYZMxSxBifFXi6O/nE/MQSmCi82dTlniG1Jhvst6uoLRBUSQgIASEgBITAyRAgpSlDOrgK6SCleLSFnIC9J1XTwaE3tLufp/XJzti5o6p89sMekh/ade4U8gInizHLIUTSk4cP7NrVGzYJkkd9OzlgRDh5TAijX/XxL0MaOQYvf3cmAqGgg1AzDqw/NjpmcyCgLE+fPg3tHcI+eXwVmRe9n8gixb7S0Whza8PJJVOY0tbTz4VPFG81gfNfu3atvg/HNXe6Plh5u9eBONUvf4sAAcUCLG0tWBV2Ea5yT9BjzGWg9e6IdZ7qvOhkQkAICAEh0DcIFPIFV7tT0jY1O2NTULuThB4kbTubgZEEhjNTGV6GinwbxLJQKDopGx1J2zjIJcMVeUgjVK1Ctb2xsWGv5l/Ye+9/hFSh4AV13hCp5fMYczFfxPaqE8+lxXkbBfkkeSVBTI+Mu6o96em6nXLA0z1hMzMzCEc1YS+eP0cf8jY2BjMFSopb6Ab7kIMkk05KJJ8jwDWN1KXzrxCyCZzl6vUbiCowZtlc1m1TaXf66tUrW1lZQYrTEUsnUx5/NQnpJ00hWj30RT7PZjViovE+Bmej8saCxZjZiBJ1J54qQkAICAEhIASEwGEIkITlsnnbQHzPImwNmVZzAs5GCVdP904hGWT6wjLI3PZWxh4/fWIvX85DKwlqjXkAACAASURBVB6DVz40nRjHzVtv2I2bt9x5h6WEeJrrcKIqwXHoPMIkUXrrHuVkkCh05Hn+9Jk9evwIJgfI7gRV90vYWp6bPWeffPKJxUD+bt++a++8854lxxo0j21MuFPWhD18iGOziBAwPumSS6pY6bNOzSvbX4Zj0uPHTzyoPb3ck+jrublZeMs/cnX6pQuX8J207+/dQ73HLqldXoaXOzzux8bH7PMvvoCpQNquXL1m73/0IcgriXFDBS/y6VN5BgXks1bOIMZnZO+JPjj35CJoTNAZ9EynFAJCQAgIASHQswhQgsin5Prmum1CQkgp3fjElEsQ44neojUenB39e/Ximf3zL//FisWy/bt/99d2/dpVJ3XMWvTg0UOQ5qTdffMtf/wzfBTHNQnJ5Qw81MkLyNsoFyWBI8G+dv2ak8FNSBf/9Pmn9hSSxh//7Kf2wUc/dmkW8UhDqtpaRkECJyD5JPGkdPXc+QteJQRLAi9BXx98/719+vlnbtP58Z9/DEelC05G//Hnf2ff3fvOHZdmcG724wYkoOfnzlt2e8s++fRfQUBf2YcffITj/gL7U+jD6L7hoXprllpRGqTfeOOIHIlopwFDTyshuHx5+5Wn1eT1wreSQD2DlUqgoPxbZHSQloLGIgSEgBAQAidHwH0m8FhchKo5X8hBwpa0mdlZJ59M1ALzRFc/e2nVJ5/8tG0dGc7a0GGTGNNx6F9+8Y9WgETxf/n3/8EuX0WWIX/aV9HvafQ/DvvVgttUxuHAU8jnbRMSRwbLZ5D4VpU1vd6nMFaS0zIck6jCJ6G8jaDvlxD+yCxpNXckgSSzPv5g2onUmGifBLRSLkISi7TeqO2kFn1hxsUnD+8jZNOvIL2csB/96IdOPCmlpbT02rXr9tkffmc3b95ETFXYe6KtSTh5MbbqwnwZYcsrNjU2aXfvvOX98GyN6MNeJ+q6rK0tRFXp5AjsUadjKmDEW9xaRFrNTZ/8BJ2N9tQ7+Sl1pBAQAkJACAiBQUSAXu5UTS8vLfu3p3mEynkc9osR14xsI890/LTHhCr6yy8+s0Woxd//wfsIFn/ZQyY5yWRgeMTcTCWTIHDTTvIo5Swj82EOAdxTkIymINEkiWP2dqrE+WGhBJQfps7cgAR4Dmku585dAI1wSZYTT9ekknXiTx5F6SaJbBLnIwml3WiEF2tnELLqi88+sW20eevWLQSUB4FEWxGVpu0n7UavX7/uKneegtJP1mF6U6beZKxVEk9KchmflC8K+xVJPvdDpdvbMNtxLK7qJuw+SlgUfFXycAX7T1K3u6P2hYAQEAJCQAj0DQJ4VNJZZgW2joyHyfieJG9U8QY21Rv+E3TMoRPOQ3itk4NROskYmdyeh6PO2uqq9/86VNfnzp1zBuB2kWB7lJgyvFIIZbTfzNTQTsi1TgJ6C+GYxmFrGXmWO5sITYWDuYE8FO27AxN+l5GfnfW5rQKpK7MfPYNN6ixILDMqec5270/VifIiYolSGst93ka9kJSuQVKbg8T2GsZCpyaWQGxJXb03u4rIZysiXfndAD8SQNdKWSutvcTs482BZhkJXDTudaQiBISAEBACQkAIHIgAHqnbyDO+BXtH5j6nbeIECKjHlaQGMRLVHdjA6exg3MtlxN+kVPDCxYvuaLwG73wSSiZhYs51J84ga5F9ZvB3p1UrmSL7yW98WvKvkzAWYHKwjvaqIJFXLl9zSWkgr3WveSebbCEovr0JbOA2rxd++nehWHSSnMlk7C04Ks3OzLlE00M/gkXmkJKTsUTnzp33eKEsEXGljSr7QbJ54fz5QFq9xsFF5PNgbDq4h1PPKaznP2WMr8K2FTee0+TD7T0tnsJ+kE/O3iFxtzrYKTUlBISAEBACQqAvEdja3IR6OOPxJaemZ6DunXTbzx7hnY4pSRmzL5Ho3YJHO20lKW0i+aSn+ygktckUA8EzhmdDOsj9VI+XwQcitXjrJJH40Xt+laGNknG7CjtSD0RPconjK+AZu+SNEZdFQ94mPlT9R5JW2pkuLCD6DrbNQgo7GklR0R4J/ubGpnu+v/fu+zBvGPPuOJfFZwu2o2vIaMQxnUfwefbDvVWiDuwzKSKfDuFpFGYS4AxgNqByZ2D5SmbRJ4chDPi2RsNcv3L2majT6KHOIQSEgBAQAkKglxFwBxY8I0l28rltf4ZOz85B+jmFxyjTU/fOA7QCzyeGS2Ls0SuXr9jly5eg7EQfQTQTzsxA0Ugw/dEfbCvZf9qEjoCYMoxSFXwhVkPg/JZJqcHuleGYSAonYXJwHl7rJKwVbF+D7SWloCMgkMFZiRajgQzyuCKknIyuFGKihoaZojMHUwCGe5qGhz1tOr2gIuOpLjKDEo67cfOGk/y19XXEEZ1wU4L1NUYdWMccTHgQe46BY9/EC0IS7TCck0ukm0pvGEbs6tJg/uDU73iUVYtWQVrNKmxWmKo1xuDyNPxsXV2DCYVGJQSEgBAQAkLgRAhQdU17yOXlYO+ZgPPMLMgnA6rXXGsYidtO1HxHD6JgiQTPHYeoEud/dQkntaEsJIvrayCRkJAyJBMlmil4uE9CkkuHIKrDvW6LRjTYe667Y9J5EL4p1Gc92pLSdpNZj2JoOxwXyAWRqUBFT+949mUcRHOHdqB98mESyDFgSVyDah4qd7Q5//KF23teReYiHvP0yVOEV8o6yVzFiwDrMP/8FDzfGTeU53/85LHX2a+IfO6HSse3ccqDDQaln/Fyzkqbr3ABgW/SzJNieH8LEvvsOPRqUAgIASEgBAYHATxD6eG+srzs6uBRpIykgwslhZSIRg43Zz5gkDn2be7cHMjcOLIagaiBDPJZHz3u3WMf43j+/JltQIpJUk2pIaWOkyByJIn5XAHSR4ZB2j0iBq3PIrA7x0zyTZV3GVJWqs5JQJmRiFLPIPYKBxMb5oGnOQBtTEkUgw7eUH8UEtRgNxuFqaI0llJS2nrOw1uf4ZfOgejmoaJfRlrTUK8GtTtsb3EKmj9wzJSirq6sOvFkwPkw4N39l9r9VFZo/U2Mi462n+WsFTZCfM8YhZ6x5IHhCE6lezqJEBACQkAICIG+QCDmKR2pdieZI4GaBulJIiQRiVjPFEg4me6S3t9Li0u2tLziavJROBhVIS0s1u1BSRYpUaSkk2GMWNIIHTUzPRtU6GsrCF10aY88lySW0lRKfBNwtKKn+TqCxs/Pz3tedXq+u6d8EyaM+ZmHCp2kdQaYMUIAtbKUGJMkvnH7DrzdXyB00xYcukCWUX8V/V6YXwC+cOZKMid9DVEGFtH+hJ+fgjWm0yTBToPABonsqs0jBiulpFOT03UZ7+6ZEfk8jZXKVJq06ayfq+qSz3lGL/AISzXs8+xWvaMtOA1UdA4hIASEgBAQAsdCoIYY2QyOnkFsS9ov0vuaaTUZU7J3Cu03K07+rl+7gRzsBWQyemDf378Hr/erHmqJzjt08mHYousgaaOeWjOMgUT6HLIGTYEcvkS6ynff/UEwKWhySiJBJbGl9/w2shU9fvIMNpYb7olO0heH2ry5eHxQEA16s29lsujHZRDXkM4zIpA//NHPLF+s2gpCQKWQWpNknkH8L1+96lJNxitlatCV1WUnqu6hDxLM9KAZzEkOktonT5+7lJfklNmPGHPUnfVbXgxEPk9ttQaj4kq1ZJX8uhU3X3JOsEDAPhEUtiWKwqn1SicSAkJACAgBIdAfCNQJFJxb8lQ54785ONqMw06Rntu9UIIlJ3tChw6DRHHS3nnvfbuM7ECM+bkKdTWD4pN0XkL4pZHRUVfFB3OB8E2HnkmQvRu37tijZ0/t30D1PZqA81CThCoO3nDr9l0nhZR2lqCG5+8LF857gHcPkbRTP5DaAlTuJKs5SF0/un3bJZaBFLJu1c7BU/0v/+rf2vzCooeyov0ng81THc84n/Rk34Rz0d0337FryNkOzygXnN164447PS1Dwst4odeRp/4i6lKSy/ZbiSfREfk8xdVaQ+oqxvcsbixYBSJtxvmKeZDP5je2lteDU+yfTiUEhIAQEAJCoHcRCMHQN1xqmPPc4RcuXLIx2BnSjrIXn570zqcUkjnUmYXIY2PC05j9DT7oQLup405EsWd0YtzefOcdu3fva3iaL0HKiaxCTYHdSReZx56E8TxyrfM4Zn6KQiftp0rNZLZtBdgxLurt23ecsFON7h2gNzo+01D3k9A2bGdDu2Mj6A9yz0exPelo5IfhvDH06yJMAxjLlCXYtXJCmN6zQceb11VvvCr07krvQM9ILMNi4r+J4pYZ4numkNmI6ygRRwYBzkIM3kdM8t5qVdyBHqgJISAEhIAQEAL9jgAflXS0WYH0sIDMQGOQGs7MzkCSSCFOb5ZA1vwh76SSqviI2JGY8UMi2Vz4m9LLK1eu2pVrt+xPf/rcnaxaS0NaSp8kthEkp810jyTXg8UDNzoOZaESv30HkkrYnjLkU+R1z2NpE+q54HdUseQvwQve+4l9kSRzh2B6pyLJbfib/7LeQcST+0U+HbhulrCoOIVxLI5abstK669sBBsQTcHzonL63T5kX7PcbvZNbQsBISAEhIAQ6H0ESKJI00pQQa+urrn9IiV0zOlO8rkjRezBoQTSRhIXhFHhu9HRaH/zN+tQ7f2Tn/2Zq+sXXs0jHSYI6JECKp4D1fDFj5NAYLUKO855ODdR6vnWW296nSpD7tTLrj7UuUhEkkkuQwnfje07h+OPMDZuCQR1N6Fursm/RT5bEenKb75J4MN87rkNK2dW/T2nhswGNaTU5NsQAyL4RhUhIASEgBAQAkKgBQGIaaBWzuXynkecXOc80lPS3pPSxP2Vu70LIinBUYXST2ZFeufd9+y777+HF/qmq9aj2J2tJDZqz4knLUTxB6WejMH54sVzl2revXPHPd2dbNZJRyuZjKSbbK+5n631jur/YftFPg9Dp0P7oncGqzC4/IoVs6tWwsZqctyqsLHwFxkXc5OA7tTu0NnVjBAQAkJACAiB/keAoZW2Mlv1lJVMKXnN43siXxAenSCnLlkcnELySHvWjz78CJ7po/bo4UPPaBRU7AeP08ljnVgyTueL58+hbs/Dq/46wjDdgK1oCOkUJF5tsOCDT3XiPSKfJ4au/QM5ta5Sh7NROYPMRvmMO8LFETercbEEe5D2W1XNQUIgpCAII+pl9dEgYa6xCAEh0D8IUOrGoPKMlZnNbiHMz5hdhk1kGjEyG3aL/TOe4/R0dnbWfvDeex4PtFIp18WRhxPtSErJgO8km1evXUHoo+see5T7GjacZ0M+5e1+nBVw0rp8G0NsshBi6QUsptEQ/Yx23j7Y8OEL6aSn1nF9hICnNyMNbTU/76MxqKtCQAgIgS4hUK7HxyyDUDGrzyyyB9Fvwp+fcIhpfonvUhfOpFk+Fy7Aq52pOhmayY052yzMrX4Znuie4hMhnpqpxkFq+zabfq1qIp+vBV97B9MWJYZ87uVt5KJFZiOKm5nOnQsoqArw99m8fLQ3ANU6FQQk8TwVmHUSISAE+hABSjfL8PjeWA+ZjWbPnfMg7IyJybI/8Wx+sLZP2HoRHhLFmZnZMNY2h0IJZ8gtH6IBtHLWZnvO0x6zyOcpIM587rFywWognySgDKeVwFsIMxvRxJMLwN9AznIlnAIOOoUQEAJCQAgIgZMgQN+IUiGPIOereF7W7NLlax7AvcYMOk3Sm+jv6GU+IqWkoZ7lx0ub7O0kHe3CMXupQej/UQ5Arce1/u5CV9tuUuSzbahOXpGJNWPFjNW2kFIT9p4eJxbB5SN7z2r9dSQhAnpykHWkEBACQkAIDBQC0TMyxhiTMF3L5zK2CU/3NDLzXIXzTAo2kDFKc1CC1wRJWUQsGUcmxJIJoCAoexPp7Dfv+OaJPYp09sMiEPk8hVlCTgaEWFq3wuYiMhzh0mA61MRI01tYuHiQ/wgXBy+W/norOwUIdQohIASEgBAYYgQq5YptIXf5VmbTxhCr8uKliwgj1ExhgmsvwzExdzq/aQ+KDI89k3pziKdvz9BFPvdA0vkN8UrBitsLVt6CvSevD6Z8TYzjj6ACaCgC6kFoow2d74paFAJCQAgIASHQdwgww88GPN1LhaJdQoiluXPMYV4PVejaw5gHYd/a2rKNjQ1jiCGGKWJMy2nYhjIFpErvICDy2fG5aJJa1v+slPNW2FoCAV22JLbFk6OQegaLlODXHNhmkHiKeXZ8StSgEBACQkAI9B0CzbachULBlpaXrQL1O1XuJJQJ5EgP6vMQhunpkyf24NEDeHan7RJyvj9bem6fLn1qP/7xjxGs/ZYIaA+tAL0KdHoy8AZWBcGkHQpfxvx9LL9hsS2EWCrmLQa6z/ieDAsRQkNExLNuqSLu2ekZUXtCQAgIASHQhwgEeSafjTXLF3LI6b5i6eQIcp5fN4YQimxC6Qk/vzhvX3/7tcew/PGPfmLvvfcDe//99z1F5S9+8Qvb3obfRS953PThfHSyyyKfnUTT26JMM3yQThWXTBUSz1UrIMRSDWlUI/IZj7EOCurw2w2hRTw7PhtqUAgIASEgBPoTgSjiMaWd2e2sbcLmc3RyAsHlLyNqDKSe/oylur3i6SPX4Yw0OTllk5SKJlM2Pj5uly9fssX55zY/v+BB6lV6AwGRzw7PA8MqJXAx8NspJew9K5kFK2UQYolEM4ltuGg8xhJKg3iKeXZ4KtScEBACQkAI9DsCeHCWS8xstAoCum2XLl21SxcvhfCEfIZCxUhbT0pF8/m8p6FMJINFIWOAUvJZKhVAPl8iOxAkQJLy9MSKkM1nF6bBc7WDVsZJPgsbVtl45t7uCEfm0eWrsZCRgW91gYJ2oRNqUggIASEgBIRAHyHQKg2jZJMlm83a0hJSU8Nc7fYbd2wC0s2QnSc8QcsglflcDjnPKx50Pg5CWqOAB98JPHPp+b61GdTuNInzeJ+S95zpyhD57Dj8tE6J4o7hb0g8K+vPEeeTFwWuBcb3FOXsOOpqUAgIASEgBPofgSqIJMkhnYnieJTSTpMe7IuLCzY1OW1v3L7tqSJJTJ16Msg8iCaPY6KWmEt5GoU/KRDKFbJOXlV6A4GBIp98kYleZk5Porj7TI0YnTFL1oqWX3+BlJovDaE+LY6UmnHE9+TbGKWeUURPt2vBtoiy9sbSUC/OCoHo5cS/fXnpFf2s5kLnbUGASzG65Z3eTVbTMAQI8PlHj/aHD+4jTFLBrl27aufOn4eqvGzLIJ7ra2t249YtZDa6hDsiSWRDTuombfWlGTSPBAxPVmysksriu+FspPtpLyyngSKf9C6nuP3074nNZ+Tf9QujuGUFSD0r2VV/g4vByz0eT/vekBCsXg/OR7w6IjJ69MLQxXM0Rv1XI6iR+q/f6vEQIXD6N9chAldD3dhYtz/8/reWyWzZx3/2526vmclk7OXLF5aCHee77/4A26ZCJuqmtRjHAzaF5ytV6lSxR4WEswJVfA2MND2KKDN4DlOqGpzetZjPcsW1mlicZV+6cO5mWWgXmt+3SS78CshlJTgawd6zXCxB3U5zz5HwBtZyXHBOaodQnsV49h2kNnYQgT0z76/ufJXXfHcQZjXVAQRaX+2jUDeSzncA3J5r4vTvPwwkT491frK5bctsbdqzZ89sE0Hjb9+54yr3JOzXWl/UGWx+fGLcMxoV0UYV7JJrk2r2QqnomsXZuVloHuuUR/fWM19tyTMQE3Zh0EFRGd5j9jzKG2qiLpy5/gq10zJV6O5oBJV7YeMhCOgzi4OPxqFtr9HwmSp3l3SyFpNp8rpAz+ve7/v0vhu9Vps9hoCvC/QpSO6xHnbyFfdYR9WdoUaAUiMS0GAkxHBxXKt+E+vufXaoUT+jwfP9l88yTm14uHa1I1xLczNzdufu2wiptI44niP28tW8LS4s2LlzF+2HP/wIIZSmgubQOxQ+vG8mYQN64fwFW0EQ+lwu69mNRkdGrQyV/dZWxkbGJ+0KsiLRGWnneXsKY+oqYH3e+ECp3TkXTt7qN0MP9H7qE0SZJ+w9K3nYez62MtJqJtCJBC4OxH/wvkW9aiaaMbyJ7a8KEB099SnsgRNq1ntgEtSFAxHg+jz9e+uB3dGOLiDgUu1TnuSJqUn7+M//3F6+eAEP921Pk3kBYZVu3ryJwPJX8E4eJJe7xE0MbwiV/PXrNxFuieGYcra8tOTpN9eRjnMJf7/xxl0/PonYnyq9gQCyPZ7y6urCuEkyw6sZRuOEs2lUuIC6OsKdN7BoYMGZqJJbscLKE7N8zb3c48lxXDjB3tNr+nUdLqTIQoVvZEH+1QWQ1GRvI1AXLbTa/QanI1HR3p684eldtBJ5Tw0ENJKE7rrrDg8gAzxSzjGjYp4WA6VUPY7n95UrV+3ihYuIzVnyVZZKp6BODxLLyGkoCGoa4PNZeuHiRXvn3Xc9veaDB/fs4iZzvK+5UOev/urf2iRsRTkWZTnqjUU7cJLPs4Y13IphZ7L6GCGWXlqV1884CHFi1BXywRlpdy8D5eSRIhlnPX86vxAQAkJACJwNAh75Bf/HYbs5gg9LsEgjaeSv/UVJrEPp56033kAQ+su2urpqWwhIf+PGTfvxT35qo3A2IkH19lV6AoGBIp9Bcsj1uf8CPQ3E41Cfx8sZ21r8zqrbK7gicNbUGEw8sfB59TR1rfkykMzzNGand8/BVw/ae3Lt+jpm9ANfx7pZ9u6sDV/Pmj1Uec9q+BUPHxYacecR4DNyzx0PG6otj/Q9T3i/X4b+MMPRtevX8aO+AfdROh6dIS3oPFAD0OJAkc9emA9km7XaJtJpLt33wPLwMaI1dCASuzzsImKx5zLqhWGoD0JACAgBISAEegKBVlV5qzEd437yhT0Qzt30lXQ2MnHricGoE47AwJHPHennaU2wc8ew2JnOy73cVx5ZFfncWehoRHuVYLwd1AhR14KaXeTztKaql8/j8em4fryTjbf4Xu6z+jacCATTot0SqkjqNJyIDPaog0Kmt55TzeQz6lljW0RCw7w4+axX8jq9NZTBXjyHjG5AyCfJX/Sh5jJaYNEbUDdXW+McnnUBKvfCwp+sll2BkxFsV1L8h8qq3X3gUbsvlkNmSbuGAwG/Q/LTuFmGgXdz/Q4HtBpl5xDw1Ug1J1crX5poJtK55tVSzyAQXjN6pjtNHfHc7C1l97bd+/dR5rcert+njMDABJnn7c+93k+9NIhv3EpWWntqmYVvrAJHI5JP83SaDIobhYiQFd+pT1GfnNDXMB/jO+t47w22T4aibg4BAo37rdbpEEy3higEOopA0p0c+rw0bn2UGIXxRA9yfndzjHw3ZKHUMwmp5+bLz6yy9dzF/HEEyY2BfMZiNPxkPRLkZrxlrt/nS69D3fdVGtraSUwcZOMdOoGaEQIdQyBIPNlcePGO7rXdvM92rPNqqG0EWu0s2z5QFYVAGwgMhNrdpUU75fQE7MGMuX5ueNNVc6uWf/WVxUsIegvzzlhyDEIs/hFMngMBbWNWVGXIEGiWHHE1R+tlyGDQcHsegWil6tWo56fqtTu4+7n62s2pASGwC4GBIJ/RiDzA/BmoLF1mVclZZumB5dceWQJ35ngKqvYEgso7N62nodvHTuVk67GZbB/VQjOxOaqu9p8FApH0/CzOrXMKgddB4GxMnV6nxzq2bQSgpZMjWdtoqeIxERgc8tnEx+LH4WbHBGy/6rVq2eK5Zcs8/cQqSAkWo49RerQu9aSHOzpUN9DfffxpdPQ0zrEfKtp2HARClBAGQW7YBIuUHgdB1T1dBLBSB8Bk63Qx67+zuausO5TpOdJ/s9fbPT4LD53uIlK/RvzBfQrXS5VsoVKw0vpTK89/aQnkI2Nsz3gK5BMsFAp4fEgqTqEz3UVWrXcLAS2NbiGrdjuMwG6b9XrjWr8dRrlXmpPWrFdmYhD7kTw9C8nuwde4IYaLZdclgxtj98bI90E4DeVXLfv8C4tvrloCdD6ZnrRkfMKqcHcP92VKCbo3frXc/wjsOMpRyuASpejT/2PTCAYHgRAzMaxN/hvda2tu1y6yMjgzrUfWIM1lL45l8CSfp4oyZJqw9aysP7atJ380MHlLpROWTk1Cy46sRi71FIk41SkZoJOFSIoDNCANZYAQ0Nv0AE2mhiIETh2BgbH5dKsUt02ByhvfnQ77Ed7yozf+6A2/Ag/3Zdt68aVVN19B0smwnlPI487wSlHoHHTIq+tmfeqru89O2CrxlKlGn03gEHQ3uvNFUk/JOodg0v3xpZkekpk+tWEmB8FbMVDOcHH4eJz48dFd/68DhvH0YKftZlRcxVTettLqQ9t++TlknCC9o/C2J/lEnCUEXnLO6S4k4p2ntqD78URhpYa15a83vl7Ci04/jkd9HlwEmlVlvLuG7EbhBjcIz5LBnbnjjyxWiwiniOfx0dMRRyEwMJLPowbaqf0MC18Dua3VymbZZcvNf2W1TQSVB/uMj0zjG5CSPeDCFefsFOqD3U6I6znYY9ToBg0BEZJBm1GNRwicJgIDRT5dAuqqdxC/XfE+X58GVtBECISD6YlVLF5Yt+LiN1Z4+SdLIpdmYmQE4ZVo64n9CDgvcedpLuP+PxfXTSwe5ErMLLKvV3H/D1MjGAAESDv9Nlf/cEjQ+dD1UmUAEeDc7mRgG8DxaUhng0CzFuVsetCps+5Srb8+2WztFlUQQZFetXg1b9X1R5Z7+kc4Gz0PHu6QetZc6imJQCt2+t0mAly2+Ciwc5t4qdqpI7D/3W3/rafeOZ2w4wjoJbjjkKrBOgLJgfKopfQoePfsmuD9th17BYBUxgxBPPEd3160POw8KflkgHkbn7BYehySK8b1LLsdVKvkM9ilHvusOmBIEAjOcmHdUMrgdqA70vshAUHD7HkE3A7Q77OUfFZ8jUbrtCP32Z5HYPg6GAzI9IIxfDPf3REzOlDfl0jOGand/c4YOfqA/NR1CwAAIABJREFUCHZmjMEyL1natuLCt5Z78blVsysgnbgRj4xB70Ti6Qp//zQXvznvGG/3PdwaQBcQiNZoJPUMEofOrNwudFdNDisCdc0OV2Z4SWoAodU6WItiR5nIOd/9SBusgWo0Z4LAwKjd/U28foF0a1Bx2HKW159Z7vlnVoCXOy/IJIhnwrMZhZPTIz543OM3t0Xbd5kFnMlc66Q9jsBudbse5T0+XepeEwJarVoOQkAIHAeBbvG04/Sha3XrgZY60j5V7oncmhVAPHNIo1krF+DdnrREetriiOtJd/dglo1/3dM9/NeRk6uRgUYgmGkESZIP1KVLEjUM9KT36eB2mw/RMa5PB6JuCwEhcKYIDEScz+itm0yaN0f+bn4TP6ntHEmkq9BBBhKlvOVffWHbT/9g5cwCcrfHLDE6C237JM4WggYwsD3ckfzs0T2ZYZlYgq2U7tRnutp79ORcFTsEFGso8iyVNKlHJ2yYu+Xrkyu2Wr/XNu5pJ73PDjOcvTz2ZiHK7peOXu61+tYvCAxUqKVm0EOGo+jxfXzSFwLshuOS1aKV1x7Z+oN/sSLU7Z6/Hd7tydQ4WCUDUYRCb/gg82zQhkag3n5ZEurn2SEgunl22OvMQkAI7EWAT7fmF+KTBdQ6jt+DJ3BRGXgEQD77f6KjVJpO/HCt7E2tebwxkjBGlDJeq1ht64WtfP3frLDwOfK3lyw9DuIJ8hmcjEIIplbj+4FfORpgVxEINsQDbRXTVfzUeHcQ2I8YcK0Grc/x7rPd6aFa7RwCJxfetPYhCGHaWR+dchBu7YF+9xoCAyn5bGeJHzwRDY/1GIhmLLtg69/+A2w9f2exYhHEc9TSo1Mw8RyBqhRpNP1kPEaB5Q/GVHuEgBAQAkKg3xDYcYKsq/dOqn7nS0tDR3gwCtQenvQcB7eqPb2IwMCQz51Yc69tAQ82yQsNEs9EYdVW7/0323z0c4vlNy01Bs/2sTmzxATqMLRSUEgwj3uz+j1e2w1rIKYNb/xeXAjq09kiEMVLbA3Tdba90tmFwG4EmmVhQdN0fJMmYdofCNAOPSKMHikQv6Nn2UlGEJK0tHPk64mP2jmD6pw9AgNDPgllxDtDwO79wY1sMD0/O6rwYgqXWFjwru6EjWcNedtX7v3cct/9HEHlV+FglLTkGHK3pyZwBGFzhoovHL/n/rv74uGbnKdP3L9L2ioEsIZoMsIVEr79b92DtTJ6DIEd6ZXHLqa2R4u0x6aoo93hcyuRhIavPs/7SyX3xrY+qBNH+UBEjpcHHa/tg4PAAJHP9m6CUfYh5CpyD2MSz7gfSoKId3mkzoxtPLPM/V/Y9oN/AgldgpAzAWEnVO1wMKp6SCXUjk53BKNUqsTBuVhOZSTOOfe/xZ/K+XUSIXACBNq7+56gYR1ypgjwJTidSlsy2aAKrVaZ0tac6RT17ckHiHy2NwcMhsQSOCP/hQQUFxgdi+LFTausPADp/JXlnv2rVbeXLJlOQeI5hZieSKHpWYx4m8W/OLRxEbbeept/H8FO2+u2agkBISAEhIAQOF0EKKBJIKyghxCk0KX1WReEOO12ar/jm4+V5LNdJPu/Hsjn3sXUf8PaS/BcqrmjymyMMUgi+a5GtTtVR9Sc582256288I1lEcczP/8nq+U3LJUetZFxSDzTY1aLp1xBz0IJaYTbjgS0FTSXYHnt+p69fWw9RL+HFYG9sgR/PXI1vIoQ6CEEGPvYX7xR6sszyOkb98Qe6q260mkE9rkl8e7lT7mj7lf1tXN4lwaBjxw+Qu0NCAxEkPloMhnuo0E4G1PcHPyYzkG096ziDpqAtNOQtai8/tjKIJzFV18ijudji1WylhydCEHk08heFE+gsWZfvaYrsH7BBfpQv3B2trEP+1ytWn1DhUA7aik+wMNDPKxhrqRgAzpUUGmwPY5AtC5jsPcMdztqjkKnFWS+xyevA93bT3IZpJX7BeHafcJ4PeFKB7qhJgYAgYFQu0f0rtqkEvBsR05Go1iJpADIP8S4nZWKVYo5ZCqCtHPxWyvNfwV1+32r5lYYJNRiY7OI4zmJMJ4MIh+1HkJFhFvu3rez6NIjRd3t1be37gCsGw3hmAgc9ArC1RHZITfbB0dZjo55GlUXAt1FoH4/5Au8u5n4b93jugt677TuGsV9VO98cT6MfoYX694Zh3py9gicmHx6UOH6Imx9sJ76rWiXpLEBapAloXd4S49Vy1Ytb1utsGmlzAoEnk+ccFaWHpllFi0J1XsSanYbnbYaPdoTSTgX7ZVbHhwuIrr8qM4P0cqON70uUzjeIR2p3c55oxk9qn/ttMVOn1W9dgBrd6zttBXGGqG2H6HkSuENvVKLI4FB5PyGB7t7E0dYRX1iUkP8vfNC1G4fVE8InAQB3jvDS7ybKOFH0PA47cRv3vPqtoBH3RpOcnodsy8CzVA37gz7Vu3KxmYC2myj2U4cz650SI32JQInJp8cbalctmK+YNVqxW9F0YVAUkpe2mrJdhKE3PO3jRtbEQHg+WEpl0q2tZ2xjY11M0g5rYzQSYV1K8Fzvbq5YIWVJ5bfeGy13LIlsT8JR6JE6jzSZU7AtnPcyrWE1cpoCGGUfCCHFAaZ3ztOqumPW3ieNgZ63GaPrN/J8zaiwB1+I2rvnG5bdjj8PjrW4zRFMu4jh3xoheiEnZmLZmnmQZjw6ilbyioF1KiEZAXkngdJlYLN8aGD0E4h8PoI+GXK66Bxdw9XRXSNgJKWcX/dzlpxYwMv7OH++/onVguHIUDBT5gamI4lEjY6MgLLsJM8cw47y+H75Bh0OD7aezQCJyaflWrVVldW7PkzhCXKbu8iCRS/O2k8grgd3b2mGkdwgQpI5NLSslVAiDc2N+3B9/ds/vlzJ57V/JZVMktWya/AkWjLUnQwilUg2ZwBcUnjwh2FN18adaMbbfCJ58O/5rHsQmnmQQ01wmHKhmONsM3K7RG3NhtDtQ63F835oW8M7Z6zzXo+R/UF0pHzto/e0TUPHoOvNtofcxaQmGAkR7kmXubwm/ZRkc1ntNbCdcUZa16JR/dANYTAyRDgysOL+M69N5J8hvUHeb3F4YhZWULrz7N+Lw0PgsNu1lq7J52LSLzj8uY4tCQgnNNTU3b79m2bmka6ZxUh0EcInJx8QkJD4vnNN99YJpPZefb72M/g/lID6SEh9m/05xE+vEjd7pNhlAypMm0SfUPYJPzl0lncI/3BD/16rFRXH3FLnUA185j9eDT3n8FQ+2h5qatHXg+wMebacv68hXUIAQbXVVBsBvMNPGa8GVfRc70KViFwKghwpTEicmsJ9vNco9VqwcrVBfy16FI4Lt6jtBVypGvF8/Df1K5FL5yRls2dd3DvmJ2dtcnJSZHPwyHU3h5E4MShluJY+BcuXrSbIHkZqLh3lTN4OpJ4rq2tWhYqoGQqZVMTkzY2inSYCBAfY/B4XL5Ub8ahUvdHuz/g+Tjn1vCmTrum3TnaDx+IS0brx/bg3KpLPYIAV1ezBL25WxW+LEF1uTg/DwuRip2bnbOpSaxbxNYL4cB4dFif0Yrd70WoR4aqbgwYAn5/i5Yfx1a/Jfr9FOt2a2sLH6QeTqft3NycpUdgN89qdY1R66HyiO/cAuFL6izuF9MzlHoe/qzq3FnVkhDoDAInlnySfN68cd0uX7roEsdul6PelguFgn322ef28MEDu3Dhgn3wwYd25cpVqCf80e+kMjhxhNtho72wz/sPRhputuGYbo9J7QuBKq6dTGbT/vb//Vu3WX77nXftzbt3bHQsPMT3Q4jSfRUhcBoItJJFmlJFL+vUeN27f9+++fZbEKAZ+7OPP7bz584f2a1mjdKRlVXBEXDtiOvpGoUvp0lIm0dGYe6gIgT6DIHkQU4Q7YwjDo/wxGj3DZ3du+6IDiXQF6YAiyXilsZb+MTkhE1OTdRfCIP6MqjgD39wy5D6CKC1u6MIkHxWYafMwvU5yrU7Nm5j4wjzdUA5fAUfcJA2C4ETIHDYfbcKffAI4iDT/pAkaHxsDPfd8UPV7u3cy0/QzcE/5JAXzqMEM4MPjkbYjwgkX/tBdgqvsfTuO6o4scSHZDp814/AoWFr9Pvwtg7fe1QvtF8IHA8BPri5vKP1G37AyvOAgMwu+2hygjve2VRbCLw+AhQFROvVv5t+c90e5hCn++sJ8T/kGfjaz/ATdkmHCYHXQaAz0WlepwddOrb7hgBd6riaHVoEBvZiHNoZHcyBN4cP4wgleRvMedaohEA3ETixzWc3O6W2hcAwIuAB5Oul+e9mLGTvOYwr4+zGzBW5n7QyWp8egeEQlfDZ9VxnFgJCoJcR6Avy2dbNzVWRuFXW1RNRSIpg9Lnf7bOXp0V9G2oEtFyHevp7bfCtat1oeUbapUgS2lqv18ah/ggBIdA7CPQF+WwXrmB/VA9+5DZzDc/MdttQPSFwughwjUZ2n5HinTFoD2KgeMTrKX+6U6Sz7UHA1ycDeu4sUy3KPSBpgxAQAgciMDDkM/KH5/fBD+4DcdAOIXDmCOw4HaEnDcn97m7pEX/m06QO1Ndn3dVox2FOwAgBISAE/v/2rrS5jSu7XhIrCYAEQZAUF5GiLI/sGnvs2JmqxFMzSZX/Rj7kS/5H/lWq4pmpVJIqZ6ZSmfHYki2vkmyJ4k4CIABiY865jRYhUqIUhQvQOM8mQQDdr987/dR9+tztVRGIXIxDkDyet2jdpl91EWi7K0aARRB6ottVuOCKz4cO/1oIKPDotWDTTkJgKBGIR+mCEaqfJ89klOZ4cm56P+AIPPOMFLw5a736Gn+RRX7AodDwBxMBX689D09nrd/BnKFGLQSEwHkjEDnl8/+TNP+8wVV/QuBlCBzXbBajfBlW+r7/EDiZdqn/RqgRCQEh0I8IRMbn083teAL3iyFeSUL5I+N7Py47jekkAl4Glgm7Xdh8caDcWQm8T/ap90LgIhAIlU2+xqB4MrG8r1s9P10E3OpTCEQSgciQz0ieHU0q0gjw5o1bN8rCJiyTy5pVRmwsPYZyhRdfsjbSwGpyF4pAmPrO120m4z9Z/LCsMb+T2f1C4VfnQiASCESOfB4rnl3VU0/jkViokZwEc9PiZs2a2H/3m9/YYaNpxemCJRIJTFeafSTPeYQmlUwmbOXGDZudnbVEPG7jmXGmnIdyr4tuhE6zpiIELgSByJDPsKY7bT+B6b0bvKEL4YUsHHX6+giEziC8RY9212txetrp5ojXepe7yOujqz0vCwGu0xTUTpLQsL77ZR1bxxECQmCwEYgM+ew9DXryHuxFGeXRB7QySAUWrlOS0DhIJzUjrxoj0TPKSyBScyMB1fU2UqdUkxECl4JApFIthXdt3uB7o97lg3Qpa0kHeQUEWBSGYvyIy/OdQOXsks3AZBl00pvrU+v3FYDVJheOQG+Z47PWpPw+L/xU6ABCYOARiIzy2ZvyQ0m6B35dDsEEAsZ51OlYB3+OjMTwSt2Tj054eGLeRIUPD8E6GJwpcmUGa/UFPp1Yv81Wy4OOYvABjXngXPdpa3CmqZEKASFwCQiAfEbLxnd8v+6NuozWHC9hXegQF4gA7s1OMJuHh7a5sW4bm5vw9YxZm8sUT1HpdMoWFhdtcmLCfUCj9m/0AqFV1+eMgCv1aLV63Z48WXOlvlicRoR79qm5nQ9N1VrVnqytYS1vYLke2cRE3uYXFrCGJ0FElb3hnE+LuhMCA49AZJTP3jNBAhrEXPYaMgf+XGkCEUDAFXq/oY9YtVq1e199ZT/c/8HyhaKrSiSmEyCdU1NTTj7VhMBVIsAraLlctm++/tru3fvSJidz9v77H4J8jmMFj8Jx5MhqWMffffeNffnlXYvHoHiCbD548MD2d3ftrbffsqnCdPch6ipnomMLASHQTwhEjnye5YvUT8BrLEOMQPB0ZA2kVtre2bF0KmlvvvkziJ5kpowgTtt4FsqSzO5DvEj6YOp4EqpD8bzzxef2EGRy/ckja7dnrH5YdecQLs8OzOw721v21d27+K5lf/3BLy2RjPv777//Fg9SWctiLafT405U1YSAEBACRCBS5LP3Zh2qnzrNQqC/EGAVI9y6j9rWws2aN+zl5RV77xfvgnwGEe/9NV6NZlgRoO9mrVaztUdrdmN1xeIJrFv4KDvxxH+U8BtwHdna2rBypWwfffSR3b79psOVgzL6ySf/6qb6+YVFJ59qQkAICIEQgciQz7BIPW/sz5LQp3ZOnXUh0DcIUAVqtdvWbDZcQeLNuwObfDyOvIlQQmMx+cn1zcka0oEw6I0+mx9//DHWZNxK+3tWqZQ8Ny3SNTgqXL/lcsXX6+zMjAcbkZROTOQsh6pdlXLJqgdV68xI9RzSZaRpC4HnIhAZ8snZyUz53HOsD/sKAUQMc636PRpBR42G3X/w0PYrB/ggbjnc7K8vL9m1uXkPPFLEe1+dvKEaDP2T44han5oqIIq97lpnB2s2pJH8q9FsujqaSCRtbCxUN1HzHWR0LJ2GX3MNlbvqgWLqwXNqQkAICAEUWIkCCE46u/5xQcpjTouXSjY9cUfhHEdtDryxZ+ALd/PWbcvmJhCkkbRmu2mff/EX+91vP7H78JdrNVtRm7bmM2AIUKHnWnVDO16peoZXVkQR+WwY7R5cfvFgBbP8kb8fdRWfZLWDSLpjyjpgAGi4QkAIXAgCkVE+3dx+fFm8ELDUqRA4DwRGcEPmzbmACPe//dWvcYNu40adsEar4elq/v33v0WwxndWQEqbublrfuNXEwJXhcAzgUJ4lu9djbzuMsKd65lm+lFW6iL5xGC5rkM3KF2br+rs6bhCoD8RiESFo5eZ21/2fX+eGo0q6ggwh2cKpkn3kxtF4hqkqGF+z+LMHPIm1txXjk3rN+orof/nFxiXUDeOD/mhlYnLFub1OGq7d+C/fAgXknEvlGAIpIM/M7I5JPBQxdrvo1jfXXm0/yerEQoBIXDhCETC7H4KpTAz8qkv9IEQ6B8EwjKErhYxihjrlvf1FszvsRhUJPwETa4j/XPWNBIiQCWT5vhUKoXAopxXNtpB2rCAnI7aQfXA84OOjY/Z+HgmqNgl6ISAEBACXQQiY3b3+fSQzuBJXedZCPQnAox0L5dKtruza5P5PMzuo5566eHDB7a3t2dvrN6y/GTeyaioZ3+ew+EaFZVLKp9MB3bsU59MpKw4XQTBTCPJ/B3P68ngo2++vmcVJJ9fWrnheT7VhIAQEAK9CESKfLLihpNO+chplfc5AlQ6S/v7dufuHV+zvGG34PNZqVZsBn6eN1ZXcdPO9fksNLyoIxA+z1PlTKbSlh4L/JNDz88EouGni0V789ab9u2339gf//AHr+vOtX1tft6WlpYQBZ92mNiXV/hSEwJCYOgRiAz5fOqH1OOTNPRnVwD0LQIxmNqzMFcuzC8gx2fJx5lOJ21mdsbmr11DzsRZ3MTDpPO6Y/ftiRySgcVG47Z8fQVVuRpQN6cCFRRzPwKjZJ33W7duwQSfhOl920vEFgoFW1y6bjPFGYuNxqCWeoIxENDAXD8ksGmaQkAIvACByJBPzo8XwpNNwRonEdH7fkCAgRr5/JS9807G6o1DD9ignyeDM5JJJJn3G3ZIOrmuRUD74bwN6xgYyc5gOKZVYmaGoHFNHvla5VrOZLCWESjH9EpJlIhNIU8tg+qeXpVxfQ7+1loe1nWkeQuBEAGQz9OEbfDgOb6YPd+sE4U5Dt5Z0YjPRiAWYzLulEe8s42E1a95kz61ZE99cHbn+lYInAMC4fWUiiVdQ8IH/CD9EtZk99KLleyEkz9h44p9fn5PreVzODXqQggMNAKRUj6pcsLrM/D7fGp+14VuoFfoUAz+eI36vZymyaGYtyY5KAiQdD7HsPTs8E8++WMxe1S8m9zVhIAQEALHCCDPZxSyLQUpatJ0iE+PwTE+BX+5oDZ2NOanJTscCJwgoT5pmSiH49z37yxZFCFcimetxpPcM5wRJQE2fh/sf1Yv/YuDRiYEhMD5IRAR5ZNVNmJ2DYEaVD8nJyYsi9xy8vc8v4Wini4DAd2ULwNlHeP/hsAR0zG8QntKUrvbvup+r9C1NhECQiBiCESEfDL4MiCfszMzXk1jFNGZbM/3OYrYWdR0hEDEEAgT8Adm2+c7IXAbrw7FcqUIbNHD5tUuApHNq8VfRxcCg4RAZMgnQefNhznm1ISAEBg0BKiuBSQzJJ5nzYDbNJtN29rctIODils9JpCU38momhAQAkJACPQ1ApFlalI8+3rdaXBC4AQCx6SR6XrW1taQ/7Rit2/ftjH4cff+e6YaygfNjfUN+69P/8P2drbsb3799/YuyKeaEBACQkAI9D8CkSWf/Q+9RigEhECAQBDdT+2z02nb9tamffan/0a98LbdeuOWb3LK/I6NWTd8YWkZFXZmbG5mTqqnlpMQEAJCYEAQAPmUmWpAzpWGKQQiiEBAPD2hPv5vI9n+/v6ubYKAklQmkvETqXqC4BeS0cnJCXvn5+9YG4Q156VIj69ljLB+foqfMHhG170ILiZNSQgIgQFBIM6LuJoQEAJC4GoQIOl0Q7qb1huo9rRfKqHOfdOK0zNIWo4qOT6w4PvgTxJHJD2PJ+HnmXDFkwHZTwOOkNPHA7SPmOKHvQY5KoNUQMG+3iP+DNL/YGP6imKnk+46x336kV/S/KAv2UZfCwEhIASEgMzuWgNCQAhcKQKdTsdLMhpKN1bg57m3u4uSjaNWmJ52YnnUQQlHBBKGwUTcvg1ySqLIFGujyHThDNWZZEBE2zDZN9tNfB+3UZJKrxqFV/TVgrrKtEAsZxpHvzg69gNRxXfch6/Y6bhvdv0ChDiGThs9oM82+8RYmGOY5ShfvNcLOtPHQkAICIEhQUDkc0hOtKYpBPoRAZK38v6+bW1veV3w7a0Ne4Jgo2azZbsgofe+umfjY2O2tHzdU6g1Gg3b2d5GhHvZmocNyyGn7/z8QrfeOAmmWb1es8ePHlkNr4lEzObm5mxsbNxKILaVcsWajaYrqySHjJLPT+WtWq3a3t6e1TCGdrtlLRw/l8vY3Owcyp+OYdtAf+0llG0Q1dJ+2fYwfo7L1VeQ5sz4uBWR8i2JcpRqQkAICAEhcBoBkc/TmOgTISAELgUBKJFQOxuNulVBDPdLe7bx5Al8PvdsYmLS6R7/piLahtppqB++ubHpPqEj8PN89NNPbmofT6dtZmYW+iXIZ/vIfvzxIUhm2Q5BPp+sI2oe/U5NFazRbCOgiYrnCMhmxdYeP0Z/a/buu+/Z5s4uxhEopS2QzydrP6F/qKfNhq3euGkjVEgDQdTHU6/XneBubm1hnKMIfhoH0U1Yo3Zg+yDNRxjv4uJioKheCpY6iBAQAkJgcBAQ+Rycc6WRCoHIIUDj9HShYJO5LFIrgTBWD5C7c92j3D/8qw9B+mDChmk9AfJXgi/o1uYWiGbBilArt0AsHzx4YNs3Vq04O+tm98PDuv348KG9//57UD6rdu/rO1Yu79vi0nVbWV6xhcUlV1L39hDUhP0/+/P/oO+EpTM5W7q+YoX8lJvu2yDEX/zlMyeqiwuLlvJyvSTLMNtDNf3++2/ty7t3EfQ0ZW+/9XNXUBPJhLsMfPPdt05MnXyqCQEhIASEwCkE4k+tSae+0gdCQAgIgYtDIAjPQWEIksvEOEzpB9YAeUyBxM3CVJ6bzNEb0xtJ3+bmBkzgKSeIVCRLpX2okW2Y3IPa4fS7ZB/048zlcvAfLaO/BvbuQPnMg3guWnos7WorTeQ041fKJdvZ3bFfvfMLy+YmfCydTsv9Pdt4rdeq1gDZTHEQJKU4xvqTDfv00/+0TCbreUjn5+fd7M80UYy8d/M79ndTfWitD6ah30JACAgBIQAEgqu2oBACQkAIXDICHllOfsaAIJDLEszjZZjLxzMZK0ANDZVGDzrCzyGIZGFqyhKppK2v0zy/78pjoVAkOwUR7WCbQ1ch6W+5t7fjKuXS9WVbgvJJv88wep3ktXpQtXQqbW+//bZls1knnu7TCcZbA+lk0FIK35OIsjE6nn6mn//5T7YDc/vKyopNgQhzbPXDGvw/9zGudZj767awMB9E3F8ypjqcEBACQmAQEJDZfRDOksYoBCKLAKPTR9wXs1QqWxUBP7MI8qFySVJHwsfIc27zxs1VKKTwvWy17Cf4e9aRlunm/M+gkE6AMlJBjSPQp4gAo6Krmpsb665yMuAoi8AkVyHRH/0xazDvl6GcMqJ+AQFLo6wNTy6MX4eNmu3DLM/jT4DcJkFAw7yhB9jn63t3LA5ym4iBBPsxSFZBPuEWQAK7DPM+1VAn1ZE9b5qYEBACQuD1EVCez9fHTnsKASFwLgjAjxJKZJmED8E+halp+GVmPUVSm/07KURgEYJ6SOc2drZh+n6M9xmY0q876aQNhwQxDbM82WANgT9UJ7MwjedBIFMgi/yeDJOplqqVqke4Ly8vB/t4aiSY4+E3SgWTkfYs6zmLQCb6hJJEtkF6d3Z2XHFdgurJyHZGuScRaFScLtrq6iqOl4GPamhQIiWWcelclog6EQJCIFIISPmM1OnUZITAYCJQq9VtF8ohfSWnCnkQOKbbpMdnj9Mk3re6Ue5MRH9j9abNwcRO1ZKR7kHBjCDPJwniDszu83PXLAOTOoOW2EhiaXLfQT34Doju/AJVT/h5do9Ef8/tjQ07gPn/2rV5V0YD1ZOR9C2rwDUA0qu9ceOWvXX7LRDgrA/RR4m+ORZny2pCQAgIASHwQgRUXvOF0OgLISAELgMBmq2ZK5MBQlQ3JyfzThJb8LncBwmkujg7W3TfS/pTrj3+ydVG5vekzyZVyjJSNTG6PAZzO5XPDZjDW9gvDxU1A4WUSd+PoEKOgMDWoHgyr2gcEewzxaIfy/+j+bx+CFV1Ddseea5O5uwsISiphLHlQWJJK6l4ZlHOk6mVYt1gJ+LEftg4H7oR+GcfHJnGAAADvklEQVSjIqIOhJoQEAJCoAcB2YS0HISAELhSBFixiPk8mfyd+T2ZOJ6NuTSZs9M9J1mdCC80e29tb9pEPm9F1H5ngBE/Y5R7UFUoIIHr6xsgonHLIyCIJJH78lcLxzpAoFGlVPHj5JH/k4olqxxRPeU4tpHEnrXimb6J+UXZfxlKaxz+piTGiUTKyWkQCBVAFxJPBilx+/v3f3CFVU0ICAEhIAROIyDyeRoTfSIEhMAlIUCtkOZ11nQfgTqZgc9kCtHsTJG0DXWS6ZPyIJpdUdEOKkjHBEWzgLrvE5OTnhu0AuI5hW3CjZpIJr8B03kC/p8kmE4WQTzJP5vNpqupNRBb9pFGBDzbaNc38+CgZofYZhKklESYpPbgAEQVvqMksdPYZwam/F2QVG7H5oFF6J9kmVH4jx+vQfFEeU5sryYEhIAQEAKnEYDZvcen6vT3+kQICAEhcGEIsOY666FTUcwiwp3kkOUz6zB/H1RrSJGE3JwgkSR39KUcB1nMZCbct3Jre9dTIjEwaAopmNi4WRX+o4xWnwNJzCF3J/09A79N8ypGTOdED9HizJzFEIjEv0M/zSSONQ7VMxZP2i7KbTI4iXlDpwqouIRjksx+8MEv7f6D+/boxx+tda3lY6kiep7EmHk+c0iYPw1V1mvO6/p6YWtHHQsBITC4CMT+4R//6Z8Hd/gauRAQAgONAHgfo9qTSCxPn05PeUSZEz9UPIuzM+6PGTaqiVRIY4hAJ2FMo1rRLIgec4OGyidze7LS0M1bt9wvNJFEjXXvAn6kCBpqQmVNpVK2evOmq5u9BJF+oDTXj3YrGqVRunMaQUdZEEqa9UlkqbhyHxLiZvMQBLjuSm0M+/iY4UfKKkpBv3q4f3ry9IcQEAJCoIvAyL/82x/lEa/lIASEwNUgAOVzxFVN+HhCxazCzN1ud1ArfQwKZED4AtXzeHhUOytQGUk2J6BsjrFqUQ9BbYNgbiHNEnOFUil1Uto1u7MKkVctAgGdgIoZh8IZ9h++HkJ1LVdKHjTE5POe4im0+3eH0ULaJUbUMwCK35EE02UgSaLrLSCdveM6noH+EgJCQAgMNwIin8N9/jV7IXC1CPSQTwYW9aqcR11fyl7y+QwJ9NycZzfoqN00TPQtDakgyO4Icnq6n2egYLKXkySXn50knWcf7eS3wYxOfqr3QkAICIFhR0B5Pod9BWj+QqBPEKD+2WukDsngaQIYmOVfZdiMYGfjb5r3n6qcTLv0zNHOIpoclQxEr4K3thECQkAIvAoC/wtBJE9BX2ImFAAAAABJRU5ErkJggg==;" vertex="1" parent="GdBnVWt3Ku-aik8DXqB9-4">
          <mxGeometry width="375.39" height="160" as="geometry" />
        </mxCell>
        <mxCell id="GdBnVWt3Ku-aik8DXqB9-3" value="" style="shape=image;verticalLabelPosition=bottom;labelBackgroundColor=default;verticalAlign=top;aspect=fixed;imageAspect=0;image=data:image/png,iVBORw0KGgoAAAANSUhEUgAAAcUAAAELCAYAAACoI51AAAAABHNCSVQICAgIfAhkiAAAIABJREFUeF7svVeXI0l6JfjBoYHQOiN1VpbsruruYpOcIecczszu2/7OfdqnfdjlmQdy98xSdjfZ1dXsElkpKjMrQ2sB7e5772fuAUQEQmYgAh74vAoJhMOF+TWDXft06v/4v/9nKAna6o2GBL4vmUxGstmsSColEibqERKEtjXVEDAEDIHBQiCTpMdtgBBfvnwhW5tbMjM7K3fn56VQKBgxJqkTra2GgCFgCPQxAokixVqtJs+ePZOFhUV5+vSpjAwPSy6fF4/SokmMfTzMrGmGgCFgCCQDAS8ZzXStrNfrsrO9I1tbW7KzsyM1/H2wmQo1SV1pbTUEDAFDoC8RSBQpBkEA82EIoRCSITa+62cjxL4cXNYoQ8AQMASShkCiSFGJ0OtscuRgE5Fk0sC39hoChoAhYAj0FwKJsin2F3TWGkMgQsApLtwf5ghtw8IQSDQCiZMUE422Nf72IUAfL4FKHy/bDAFDIPkIGCkmvw/tCQwBQ8AQMASuCIH+VZ92sxMec6rp1FtdESJ2GUPgIghAQAy7jdWLXMOONQQMgb5BoD9JMfYq7QKTep9iP9/jl1FjF6Bs1/UhYJrT68Pa7mQI9BiBRKlP41CMwEIwejws7PKGgCFgCAwmAokixcHsIntqQ8AQMAQMgetCoD/Vp9f19HYfQ+DGETiv8t90tDfeVdaAgUDAJMWB6GZ7yOQjcF7yTP6T2hMYAjeJgJHiTaJv9zYEDAFDwBDoKwRMfdpX3WGNGTwETC06eH1uT9zPCJik2M+9Y20zBAwBQ8AQuFYEjBSvFW67mSFgCBgChkA/I2Ck2M+9Y20zBAwBQ8AQuFYEjBSvFW67mSFgCBgChkA/I2Ck2M+9Y20zBAwBQ8AQuFYEjBSvFW67mSFgCBgChkA/I2Ck2M+9Y20zBAwBQ8AQuFYEjBSvFW67mSFgCBgChkA/I2Ck2M+9Y20zBAwBQ8AQuFYEjBSvFW67mSFgCBgChkA/I2Ck2M+9Y20zBAwBQ8AQuFYEjBSvFW67mSFgCBgChkA/I2Ck2M+9Y20zBAwBQ8AQuFYEjBSvFW67mSFgCBgChkA/I2Clo/q5d669bZ2FbK2k0bXDbzc0BAyBG0fASPHGu6CHDUhFJBceITjdHQrf3L/8wL+i46PvXcvwx9Hze9hku7QhYAgYAjeJgJHiTaLfq3vHZIjrB6Q9/O3hEzfSo+7Tz44s+S0O6mhNqMeQJFW/nsK/h3g1/sOkyQ7Q7KMhYAjcAgSMFG9BJ570CCS2EGRH8osJkBJhCJI7kBDJeeC2iP74FwRDdx6vy+N4hcObo9ST7mv7DQFDwBBIKgJGikntuXO0m0RHwnNSIKmNhMh/Kf+5v/Uy2Ke0x39IiFSX4n/Pw/l6ADZe6Cg3xt/ZuyFgCBgCtwQBI8UkduQhVSce4KjNj3/jmJjQvDCQNNWnoS9h0BQvaEiAfZ2bl8JQSKXxgqIVn32cIQH2ebyKkzaTCJW12RAwBAyBiyBgpHgRtG762IgMnb2PjSHxQe6jijQmxg4nmTBsiRc2xGvsSVDZkOrOmvj1DZH6tgTNGs5xxJgCEaYzBcnkhiSVLUuYGxMvPyqZ0hj+zotksiDHrKpdA5UynaTJ+0fipdKm244rW28aNru/IWAIGALnRcBI8bxI9clxxzWYsTxI1SgamYqIzq9LqrYure03Ult7KY31H6WyvShhY1uksSPSajoixTmqZvVyIMYSSLCI16iSYmFoXFLlCcmOTEt6eAqfp7F/AgJlCZKkU82SUOmWI9jT1q8eKF37BDVrhiFgCBgC50PASPF8OPXNUQcOM0daFKhDjUga0h8lw9bWG2ku/4fU8KqDFJv7W+KTtyDkpfGiVlQFT5oKA8iekBxbVUiP5LfgnR7TpDYV0mN6eFLSo7OSGX8k2Yknkh+5K5nihITZIQnTBSVVEmMKxBhS7WqbIWAIGAIJRcBIMaEd55pNigTTQVpLgYw8qksrm+KvfieV17+Ryk9fSWtvVbWcXqEsuZFZSQ+B4PIgumxOMnCkodY1AFsGLdgZG/vi1/YlrEPd2tjFZ7zjFe7jtfpavOKfQIjzkp98KPnpp5KdfILrzYvkoWbVNpAWbTMEDAFDILkIGCkmsO8YZhFvGjABvWkWhBhU16Tx0+9k9+X/lMrCn0BoDckWc5KbeiK5uc+kNAsiG56BerQEVWkW0iIlPNAqRUgf6lRIi36jAjLcEb+66WyQu4sSbC9A0twAWe5LbekHqaz+IOl3f5Dy3EdSuvMzyU5/BnKcFdxMCVq343reBCJtTTYEDIFBQyBZpHjUy3LQeqvL89LBhurLdHVD6m+/kp3v/4fUl79TNag3Pi3Fe7+WkSf/SbypDyDRjUSOMmlIdCRT6kqdl2pA9SedVnG9tLQkAy/VHLxUvQbtkgtSX38rjdWXUt94JY3dJfE3VmV/Z1VqK/8hhfk/k5H7X0pu+mNJFWB7hH0yiFSzXZpsuwwBQ8AQ6FsEEkWKsfBBb8uB3EBYlMPibDOktAxEMq9Vk8riV7L57O+ksfSdkltu5qEUn/yNlB/8pcjofamnc3SNQTgG/Udj/Kg+ja2UdNQhK5IkcVWPVy4okabL96Q0/bkMPViR2sZz2YcUWl38k/ggxcbatjS3/15aq89k/IO/Ebn3F5KBitWDrVGdcbTFzl/VOeS4njNBciBHsD20IdD3CPQnKR5M1IfxOwg7wG6mLotf6jEyCFIknWNIjCHVnnCYoVtLWBFZ/5Nsfvt/gqi+V/th7s7HMvrJ/ypD9/9cfHiLNlM5PY+uOGldUHSoX2NvG/2WNBvlsFHWYsxiSgIQpORyUI+WpDg8K8W5n0FifC17kEz33/xOws11abz7SRY3/3fJrb+SqY//O+yNH0qQm1LJ1LWWhN6+bxxWYuTY93OENdAQGCgE+pMU2QUnkBwn0UGdSGNiIwLEgI41srcgm9//nbSWv5cU/szeuSvDH/5Xyd/9MxDiJEgtDbkPFBTh6bA7SdJ23zqlqvsd0DPVHQ0nmlRWgnReUqURyRRmZGzsoQxNPZa95/+PVBe+F39PZP/ZP0kKdskJtCE99yUkzSmXVg6hIu10Au3fGK89qP05UDONPawhkBAE+pcUTwGwPaUP1nSqDjZ4ZJe5FJJXfV22v/97qfz4T3CSESlMTsrwx/+b5B/8tYTFSWnheCovj6N0fM9RuN0Rh4+LSS0E0QZphGMMI66xOC1jE/el8Oa3sv3d30tme0dar76SrZ11GfqkIvmHfyEyhPhGQQIAtoUSq0qnthkChoAh0H8IJJIU+w/Ga2gR1ZikN+WTQDKtXWmufSuVV/8AT1GEVJTSsB/+WrJQbUpxFMc5xWUXRnzPxqINVOHSy5Tkhgw4qfGnUsyPi1ealsp3fyu1xZ/glPNW9tN/i/ypTSk//CsQ45y0Qih8Yw2A8eJ79oOdbggYAr1AwEixF6j26Jq0ylFa9Pyqhklsv/yNNNfXNZPN8L0vZejRX4o3cgdOMlm1IfZsQxtccSlnp/TTCMVAvGL28YgMF8clyP5fUl/6k3qsht//rTQR8lF68r+Ix4w4jI1UZneZd3rWRruwIWAIGAKXQMBI8RKg3cwpJBIoMEl29R2pLH0j++/+KCmEGKYnJuFUA69PZJwJMkjTRpcWVr44kRjfnzAdpYHe9B6wN5KIC5PizYOcEfMouazUkTygtraEzDj/CKIck+EHX0q6NIGAD2a9idtgIuPNjCe7qyFgCHRDwEixGyp9uo8K1FSrIuH2j7L/9nci2xvIVIOwDNgQUwigJ/HEwQ98BJd+7SgBHv37Eg+r6lOQGbxgXXI53tWpdwOoUzMkxjRIEu2tv/ta/LUXUvf+h+RSDSkgRIR2SA3/4KYJW20zBAwBQ6A/EDBS7I9+OFcrYimxtfI91JPPVErMzsED9MGvYM9DRhkPFS0oTZ56NX57NcTI26gqlP+TKPGXB7thAM/ULDxPKTGmA19q7/4kraXvpYKEqx5TzN37T2g42FxbekXtOfWZ7UtDwBAwBM6HgJHi+XC6+aOQfSblNxAwv4x4xG+lVakL4uOlCJVkaXIeUmL+5qx0EceSjpmDNQQx+ig/lbnzpRRQjaPVqKPNzzXTjlcYk2JpSrIzH0NIxAPEDH6iqvfmobcWGAKGwOAgYKSYkL5mJUPaEhuseLH6Qq1y6fG7kr3/CxHY6UI4sFAVebqU2MOH1TCLWJmqSePA2GOSvgtibFSlWa/AW3YBUuPvYVccRZrUMpxz7uEUJAXQfKlXIL328PHs0oaAITAYCBgp9ns/RzF9Kagi/f1Fqa9+K35lR9LFNBw+fyaZ0UcIqs9rrgMlxBuNAXQ+qQGdfPS/DAL9ZyUHYhyqbcte8+8k2NrUuEoZmZPykxKC+6fRaFW84p3EaOTY70PS2mcI3GYEopIGt/kRk/1sLh8p6x3uSQPJuGtr37m6iKPzUr73uaQyI6quPMYl180tkfqTsqLaPiN+C1MZ1GK8L+XHfyVDDxEyArOnv70rWz/8vxKuv0C8ZR12SPZRbF+8MVk32QPFWm8IGAJXgoCR4pXAeMUXAS8wpII8QakrCBsoALzuigVvraH0Ex1snqLyxRMk3oY0FnlyanJvFgzmCzbIMGR1QwZPHH1dcXvjyykZBqraZf4aLXjMCosI1/DGHiGI/68lM/dLlWoF9Rn3X/6LeHsrqMiB1OHqhWqE2KOescsaAobAOREwUjwnUNd2GAlRSYx+nSQVSFogt+bOO1SoeInAfYRgjIzKyPwnEsJhhbY71lPsq40lqbQsFTcyIDLuIKl4evy+DD/+CyQYGEJ+VESUvP4K1T3+KCFypTonHa3uiBfO7bNH6it8rTGGgCHQMwSMFHsG7WUvHNnlQAykRXWogT0u2HiBLDZvBOF/IJcnCNR/DCkSNrmoUPBl73Zd59Fm6BdGJTf/Syk//a/SguNpc29DNl/+f9LafIbyVztoCiRGZuy5UbvodSFi9zEEDIF+RMBIsZ965QgZkB5TKPTb2lmUFqTEsN4Ur1iAb8rHkikjnVuImofUsiJB90HF+356HrZFzYus1ehJE5kGghJtoX+JgsSfqgxZXUVtxgUkIqguatUPljjmy0TFfutIa48hMBgIGCn2Uz+rsS3WG7p3OtjUt6A63VpUgkkjt2lh8hE4sAgSUdpU0unvzSmE1UwK+yI9ZkefILPNCMIyoEbd++l3Ull7Jn5z1z2G2Rf7uzutdYbALUbASLFvO5denKC86qa0tt4iHGNDIBjCYeUhSOWuhmEEJA+8XHHgvn0QbRhTzmlSOEjDQWFECkgFV7rzcxhIwYubP0ll4T8k2F1CBpxmVFqKCwTbDAFDwBC4XgSMFK8X73PdzSX0TkMSRBD87qIEm28krCGNNoLhc5MfIPh9Sgv+UiXZ3vqdROBEAw4PQIo+DaMj95Ce7tfijc5AQoT2FKng/JUfJN3Y0ahF56J6LrjsIEPAEDAErgwBI8Urg/IKLnSQFQa0gNjDFEIVmigR1dqmvQ2FJ4buSB4xfyEqYRxkgdFwjPh1BW3oxSWg5j2k4CWZZ0tSmvlU8nOItQRHtnZWkAbuewl2lsQL6mZS7EU/2DUNAUPgTASMFM+E6CYOUFlRpLYvzc13yHO6AeLwJDd2X9LDc5C20G3MBs5XvxPiEfhSHc5EqfKsDN39JUJM5jTUpLr6g75gRNX8NrYZAoaAIXDdCNjcc92In3a/SKLSQsL0xNxdkcYWJMUGAuJLSLA9dk9CFvHFNVL4npljUtBJegn11gzSJSnOfiyluc80uTml4srSHyE1LmBJwFjFfncgOq0z7TtDwBBIIgJGin3Wa8xKo0SHihit7Z8Qy7cKhxp4nQ5NQ6KalQAZbDSvKJ1wKE/GKd7UczU5G5vrg8xThQnkcP0CUvAD7pD6yndOWmxWImmRxGjkmJyetZYaAslGwEjxpvqPUtBJL2SwCerbUtt8KQHSuyF9KEIx5iUzPINTULw3IEmoghWB7jf1AJe573H7Z5hGUeKZn0l+9nPJFLJIULAh9cXv8O7iFp20mKiHvAwwdo4hYAj0CQJGijfcEaQJ5q7pfLFMVAuhGA2kdgsbTS2zlB+fR+D+BGSrDOgQuUTpiKPCobvCDT/G2benZHvkxTB9pqgLC1NSmPsEkvAdgW8REp+/kerKC+hTmf4tGqLGi2djbEcYAobAeyNgpPjeEF79BTLSlAbsia3dZc3lnRsaF29oBl6nZdCIUyc6V5wkd1+s7gVZIi9qfvoxstw8RSkpkCJsi3sL3wCDNZAkovuxaaVGI8arH2x2RUPAEDiEQJJn1VvZlZz8Pb8i/tYbCSqwJ4IIvKFZSQ3NIb4PoRi3ihloF4WMzALJ5TnJ3/kMzkRITNDCvg3UjUSWm5IHhyIeA4mS0vStevxbOYLtoQyBZCNgpHjD/XdY+OFfkAURwN4CKQpUp6w/mB2DPbE0CfJgwP4NN/iKb59CeAkrZCAzgeQnHkhh9rF6ovqQFvff/QELgzXFJE5UoMRomyFgCBgCPULASLFHwJ55Wbpf6it2maHTDFOhpeFcswXV6YIg6kLS5UmVFAUB+6yTyHOO/nfmvfr1ADx7gOdxrxSSnE9DjfqBZIfG4GiEgP71l1LfeE1EtKCUIPH5gY2xX5/J2mUIGAKJRsBI8Qa7z1kHKfnELxIkwhJ21sVH8d0mObA0DUcU2BNRYYKB70cJkX8nYnMP69SfnZ87nt7Pjoo3jgogY09US8oUd/tLzxjAiPPoqMPTb5monIjOs0YaAoODgJHiDfe1Ux5GpAjdaKpVk8rWkjRre8IQxNzoHUhO0xCSckoILiNMJ5EmhBSBs6vnoYWk9MUt5kd+JvHnh+eliNJYXjkrzXoLXqjPkPrtLaTFKHvPQfHiG+44u70hYAjcSgSMFG+wW0kLSPmt/3FjKIbX2JI6YvSYJDtdQGo3hClkCmMgQwQrJkUqvAymEc97uWHYFh9JdvKpJi1obr2W2sr3kkFdSUH8pm2GgCFgCPQSASPFXqJ72rVVRII9DWpBbqoUpBGxsgzV6SK1hZJCNYxMifbEIdChK70UHXnalRP53YFaGOEZWSQqKCA8w8tnpLW/KbsL3yEP7DYQYL7XRD6eNdoQMAQSgoCR4o13VHuWTwUtdbAJ9ld17s+VZxCwPwXVKZxs4ISTGPvhe2CqXqbI75qfeoyKIAhDgYBYWX0Fb1SoUCEtMt+rMeN7AGynGgKGwKkIGCmeCk9vv2R4gVrX4ECj/4VNqW1BdQrv0xA9k0PAfqYwDL0qjIvYHCkmx4Z4GfQoEYfZIcmOP5Di1CMNQUlV1qW+9A3srbsOK3ihGjFeBl07xxAwBM5CwEjxLIR68T1IsK00xayvwYewJyJov7bxFuEIqD6fTWuZqFQBWWw80mfC7Wng8raLjXO1oYk0MiV2vAMLLweN8SyqZyD1WzEvqZov+6+/ggS9jhOIBZnS9Ki9GJp2TUNg0BEwUrzREeCkREqKAtVpUNuV2s4y531IiKPwOp1Carcc7I6QEckBygMJlhSPMmAX7GOvVIjJkh57JIXx+5oPlfGKTZSUSvs1p0JtA9LlKrbLEDAEDIHLIWCkeDnc3vssV+MCPAcbGT+noTptMTZxF6ndQIrZYTjZlGFPZNA+j4gC/d/7xv18gUhoZnr0Brxt/eKsDCP1WxpZfZr7Ddl6+7Vk4J2rDjfYIqVzPz+Rtc0QMAQShoCR4k10WJzJBoZDVr1IIfbAazUgCS1CJNpXzWAe1ehT+XFIiMh5RgMjtgMp6ibafB33jCRJdSpiiaw8wjPG74mUJlR6riwikH9/RRcQjNd0SdGTW2T5OiC1exgChsDFEDBSvBheV3q0akQpKeLVqleksoFQDMQnZrNwwBydhYQ0AnJgfCJiFvEalM5iiSmmdvNyRclMPpTczAf67MHesuyvv0EMZwV/xWrkA73ylfaNXcwQMAQGE4FBmWf7tHfdxB4gKD1s7mt8IgPWw3wWOU+RxSYDvSETZqtTSYJtiRdAn/KfGk9ZFYMLAlTPKEOFGmBVkIID0t7yMwkRy5kKqjiO7kr0yU24E9IF8LFDDQFDoLcIGCn2Ft9Trk7nmZS0OKnDk8SvbEESWtIc4UyMnUaMIlO7OTJ0hHjr1aeqIOaLciKdkPCOfKhlBPLnxpADFtxXAykGO68l5e+BJZ0PrwN5MBYNpwwo+8oQMASuAAEjxSsA8VKXgAToY+L3QYw+cro199bgTMIySbAnlsfxz7CrM8gs2JE1cfDKJkFuRHgGc7+WppH6DdJiC965tc13COqvgDyZIG8QUhpcaoTZSYaAIXAJBIwULwHaVZ5CzWgaqsAWsthIvaFx+gzaDxGSEKD4bsjSSlSd4kCNz7vVG58TD6jlMPC0eHaVHHMjUr77M5RchLG12ZLa6o+os7gJQRFp8VS1bJshYAgYAleDgJHi1eB4iato7hZ4UoIImzuwJy7BAxUEmfMQjnFH/MwwbGrt7rn9hBhD6NSg+q/GZ8K2mC5JfuZjSY/cBV5Qoa69knALMYutKg4xe+IlBp+dYggYAicg8F6kGCCgzve1/Os5Nqz4sfLn8ba2d3Axr42HarpBbVMaO0san4gSEcjmMoeg/QIIwTnZxDGNTlo8B9SJP4QSYtte6Ht58VBSKjvxUMtptRDL2dp8g0w3O5H1MfEPbA9gCBgCfYLAYVIEW8WuDqe90xukXqvJ1vaW7O2h7h/+1rgxqrJOVGeF0mw0ZGNjQ3Z3kcOS5wCEk159gk9Pm0EEUmRCTO5BxSUBF1TGSJUmNdXZwaZYgSgYrEdPnNu8Rc93sBDAszJ5TZgtSenOR4hVKYIVmeHmRwkZs0gVKo+JXrcZGns2Q8AQ6D0Ch0jRVSA4+6b1Rk3W1lblzZs3SnBeTIYkxi6n6/eY7BogxcWFBXnx/LnUKtVbP793gaK9S4kOsiIkZx+kGCIJOMHLjMwi3+kISJHfuvD0U69zG78kMeqL0mL0QkmpEuIV06Pzuu6qb7yRFupOepr2zUmV3cbebYTHnskQMAR6h8CF1aetVlPWVlflxx9fK8lNTEzAQ/D4ZdRBBFJQwHe8PHiQFAtFGRsbl4WFRZz/Shr1elvC7N0z9u2V1R7WrEp9d12Q0AYqU1ZNmkUdwTJwocWRLjadYQd9+yg9bJiTjH1WxijPSgHB/Eh2I429DRQgfgMpewMq1NbAJDboIdB2aUPAEAACx9nsDFh2tnfkx9evZX9/Tx48eCjlctmt6uPzsIz3QYabW1uytr4u1SqDrHlIKJlsRu7cmZOnT5/K73//lSwuokxSCzbGE1WuZzQmyV9DrPFQVNir78BGtsZ84NKk5+nYHbqfqtelbR0IINVdkB6S0dmPEMc5oXjtrf8ojV04KAnSAJ3Tsm2YGgKGgCFwGgLnJkUSFyW7t2/fytbmlszNzckUpcT46pHKi970lf19+d1vfyv/9I//CHUp8nliX0x8WeQwm787L/l8Tr799lvZryBlF1WJA0iMaUiKqfqeBNVtZEAFRpAQvdKotKJ6gU6BSlvtLbcjnjZC+R3GhhYf9oZQNeMB4hZn9Izq5k+oPwmHG5TcOrBp64iMX2dd2L43BAwBQ+AwAqeSIp072lsoq7Aj/vTTW8lm0pASH0gulzuwe/FCSpAguC0407x68Uw21ldpGoPqlJ6nkd0HE1ypWJJPP/1MXkGFugRpsYnYs+7WyNvbXcQrDBC0X9uWBrLZUAOdHxqXVHEEAf0ZC0rv7HpdcHnSgH45hAo1P/0EdRZF/P1taa69xDtiFrmwwjnOQcdI8fb+cuzJDIHeItAmRcwjndJaTIjxPqpEV1ZWZHdvX4ZHRmR4GBXhdeqGXSwOtsY1aAPb3NqUvf2KDEG1Ojw8xOlf1afxlk6n5c78vJIqJc/dPeeN2ttH7berAxNIOK0qwgsQkkFFdq44LZncBD6jsK5O77rM0C0cqPqBjt6cdp9D1A1TH7bDZnZIMlOP4YyECiL0QkWNxcaO80JNRxoHCpXhoEvXByPHPhgChsBFEPCwqXqKtr0K7H8kqBreSYJuo2oT/gzYt7LMAri+OtdQWnQqK9h6cGyz2ZQ61KuVyj7IcxnXa8kQCJHHNZsN0mK7Xbje0FBZZmfnQIqvVR3LawzMBkCJXdioanq3VgN5PKE/LaFcVAahB6iuGC1QSA4ON6pQB0Oabi8EDsZDtGDLArPAK0hu/CFiFu8jYTrG5dai1NZfo7rIPhy6uCpTRuxYTgzMqLIHNQQMgStAINMAmW2rU8waYg/hFIM5OJ324CU6BtKalRxsgPQuZTzi9s4OyhrlZASSogdpj9If1aK+31KnmdW1NZBnTZ59/z0ccfZlC9d98eKFTExOwsFmHiFmJddk3COTgdMN7JKvXj7DcRtqZ6TkODAbcQMpNvbWEXeHBUEh48Ix0nCtVAk8Ukd3AHJoYTEwQLUfNA3Oa4VZ2F0nJTfxWOrL30gLoT3NzR8lrK2r9OhT00qtBFdyfBHJDi3FAMJmj2wIGAIXQMD74dkz+frrr2UVqtF8Li9jo6N6+g8/PFdSo8TIOYWESEmwWEIQdQkepx2bZqrBcVRyMW5xY3NdvVJHR8dAsK4e4KETMFdRQp2ZmcY1GzhnTyXNgdh0onYTt08nGyQBZ+oyrzgG8XlWK0M41TVp8ejWbd/RY27r3/EyAaMMlTNyqJyRGb6nKlR/8y2I8TW8eamRoMYhwljf3efbioo9lyFgCFwtAt4fvvq9bG9vy+zMrDx8+FAltilIdlubGyodaqwhAsz3QHZUsRYLBUiLWd0f2wnTiEGkJ+oDnF8uFSUNwrt/75588vEn8vjJY5DfrGRBuNxixRbVh+UhVIKAqotq2ybUrQPhgcq5XV+QFGtQ+UWep2kE7IeQgFhDUK2JOOawo9PVdnwSr6ZRmygXFWChVRi7jxyx99SD8rgMAAAgAElEQVRBqbG7IhWEZwhyyGrmH/5LNapthoAhYAhcEAFvA7GEd+/ckQf376v6kmEXFYRJkMRIftx82BEZb0hyzKB+D9WrlB7jF71Lh4aG9EXbYwaTFkM2qH5lsH4Z+zNQt+pGe1q0es/gOlSj8pzWLZcU22EVcKEhBigX5cPzNKjvaxqzFEIx4H4KOYeT+VH74SBJiN2flXtJim7sZCQLp6Ti+H1UzihLs16TKtK++SDHNBYbTj7EezxA3cizfw0BQ8AQOBMBLweSK5dLsruzLUtLS/IOadhoG2SQPQnNA8HRgaGF7DUhdFWUAklsnW4x6gwPl78GbJLLSwsg16w64+QKeRWK6D2owhHO4zreWcyoQk3BZpmB6rQOT0xWO+D37nVmy6Mrn31cHxyhGjyHBDPVEI1UEzljkdqtAbtiC+uFNEINUnCycYk+OfUrYkdeffAs19KE488dK0KdTy4Wa1Ch5qdQYxEZgHwMxub2G2lsvAYpMrtNSjJKjlqq2GlQ4wuYNvVaetBuYggkFQGvWMxLvVqR5eUlWVldhpRYVceYjz/6CCEVpYgE48dzlOX+as8u8QS+hyw3GxvrMjJMe+KoOuXE7vRuZsKfnQ4Q8Z8RUSptxN93lE3qBFfntkjaTIqPoZNYgETUbpJiCHtiq7IBJyUsElARowDP07RWxuADxqTQ+eSOVDv33O7PHcQIgguR6IAhF9HyCk6mGc3+k5+4p16o/t6qVNees4SGC+DQBAjuGhrD2PFSUdI2Q8AQMAS6IJB59Oix3EcgPlOwkcToSENVJzVPnFRoN/QwwdDb1GM+Tv3iyKxCIsO2vk475L7cnb+LcAxkZ6FEyQkNx8dJwfXA6Hh+dNfH2j5aybt4PJU9z7l1ac85z7zew5za2MHqI2h/S5ogReY0yOaGJTeM6hiY6LvH1yXlGXuHKMeDUyy7UmUtrB5yxXHJjz+SXOkrmBN3pAJSHEXcZyo3hjE3QJ7MvYPdrmwIDBwCmTuwJ87MImgcalI1wZDI4ETDMAsSVjoDQoOak8m8aUukXTHAd0piEXGSJLl/dXVFmDCckmYJ5EpCJEmS6MqIS+T5ju1Atnq+c+LJw3nHEbFeMNrw+Sj34hsnbeGDfhcff/zY9nX64BOaF2daofLY9+vio3K8X1mXDCDJIZdnpjQjvge1INR/VLFS8af/UWo8wJnPff7lQh88+dU1AWOxrbJ3/e0jkD87/hjEeE9q298gkP8dYhZfIWHEHaikUWnEreyOtUGH3qDieAwN22EIGAKdCHj0HNVJomMCCWCkWUaIxvYWHEHwmXGKpTJJMQsbGBxEYlKMsoaQ/Bigv7qyKnmQ59QUnCDwXkWs4k/v3mkwv0qK8RZxWQ12yhauVYLHKh14OPvHVsU24SW/w5id5oDhsRrgAqLJclEI2mcavGxhCElsMImz/AP+tsoYx/ucJOYDG5aoxlINBwBTLCKyYzOSm3qAeouwy9Yr0lj6VtJN2Go9jCWcMxAezcfhsj2GgCFwSQQylOR8Eh9UpCS3KoLvl5aW5e27t/Lxhx/qJM2Jm2ndwKCawLtRb6rkQwsP7V/kxibCNUhyw0MjUJ0OQ2JsqcNOgPfRySmNS9QtEurobsKYRkqPjGnM54qReix+kg4S7Xg45VN8pd/qpEfVK5kkYtqOY/vmoy4IolcKDkU+k4BvSNCoYF6HN29pAjWFkRABkz0dkVSKxl+OSvmwVGOzj7Cnjx+zZ3h3LKicYj2SoIFppjiBclJPJDsyIT6SQFRXn4u/swSVKoiy+xDScXvCVz17BLuwIWAIJAOBzMLigqZjG0LM4B4IjyWfmpAGHyJEY2wcaj21JQqy2IyBvIalBvd3lo2allk8YVuhxXAOpm1rVOtwttlE7GFNA/Mnp6ZkYnxUrxEnBSc09BhkweFieUi9XGnTPNOSeGQmS4qjjRJdxGZpkKLf2JawggUDPE+94iiC0OckTEO9jNg6VsiIjyX/xY+s9RUHkRCP/I5caAsXCVw8YGGWKUtm9KHkJ5/K3uZvpL69JLuLz2Vk6gtpejlTkyZjHrJWGgJ9g4A3Nzcrm5ubQnLcR97S8fFxrXfIhN0s7xSrnxiDOD6J1TjYbBNqVZ8F7eINkxOddH7xxRfy2ec/lwbsisxwMzM7I9PTUxrv2EmInN0Zm0jV6uzMnIzinsx841SnncEeJ+FE6Sk5a30XFsB/SfstxCfuoTIGVNMgOa8wLHnYFNWFUrcOVetJjz+o+4+sCoimD71pujwnI9MfSxrjtYWwoM3Fb+DduwIB2+osDupQsec2BC6LQOYpVKRMsUapK53JokpDToP4NR4R20HWGiT2ZmaaleUVpH/b1JRvpWLx4HuqR6enZ1QV2kApKEqYBXwfJwA42kASMdPI/frXv1bVrOM4JwrF9HH0HOd4khwyjNuvllJ64WqMIuTr2i5ee/rM2fyYZEtjsJeR6F2sph5z9OEH+e9OMuz4rHl3IVmn6b0LZ5vcKBxull9qgnAfcYvYCXs47bRuzHTazQcZTnt2Q8AQOBmBDG2A8eZsMJ2kw88RUWFiYYYakiKTfa+trsk9pHLTuVxVe8jFAvsgy0qdNfm04Gjy8uULGcWx80gUTu/TW70BowPNJ6Xoyo5msvEQgpFG/UQvDxssgITcg5eG9qvVyy0O4jPbfXGrsbrgw6kaFQ5gmdE5Kc09lcbqS/Hg1VtdfIZUcB8zK4LqoM8akxe8rR1uCBgCtxQBCCWcbN2Li3CdZA5elFco5TjrFqtj3Lt/D3F1GXn37ictExUTosMnPvZktKhW3YKUSNXpkw+eyujY6IFUevJZ7W9ij8Kk2BO15VST4k0lwEZdWiiOq6SIyTyHROBevnxIMmwvS/gpOlO5sf2NXtc2RUAXESWkE5z9QNLwes4Cq53F75EcYQsqVKfmd9mUuOBwGhCDzhAwBAyBbggcIsVOgmx/5mkMwmdJqYxKi3NzdyMv1aUL5SwlIe4g+firV69kErGMHzz9QFWsF95UPL3wWTd6gqYcQ1YWaeyLIEYxBc/TTLYAQWYSaj7EdKJ1nY5GfDy3SOEHtUq6HTf6FP1281iuRlhRZkjyo/elMPUQScNRZxEJwuur32o6Pc0oxDEML15+lyR7dL8hbu0xBG47Aozm0sk4npTjv4++EwgeQ2/Ru/fuKqmtra2jwsZWx2StU/eJWxN2yBXEPzIU45e/+KU69cS2y8MnddJD5zdH9/N+p9/zxMZc5xdR2jb6laKAoni1DUlDhZxmGMrQJDwoGY6is7VO2I7v4+di/wD5BDzmdULKe7mRC7yADTPYeEgSXr7zibSQZD6ooFj2wlfIL4t6lZAWmVeJNt2jI+i622z3MwQMgf5GwONkoRPGOdoZT9dUoz5AarjJiXEt+8QMOGdtVMG62oyherdOTU1KOnKA6H7uyS1y9NEpKp58bPdrX+9enbwh7VFx10RljFZjUxcYqTxyy0Lt56cwoeNvD2WRNO+bTt34jxzJpvb3410vmB13Iyxczrl8qPiUQ7zr1GNJoy4lMdtffiGtvRXE/9RUWkzR7s0vVHK0zRAwBAyB4wh0qQB8/KDOPWkGkMOhZmxsDAWJRzQ7C7PinDbNxGEd9FYlIWbhycqqGhd1ftDg9Q4u1MD9zh2nN/3GvlWKo+epXxW/uolSR7Ap8jkQo5iCTTHUcAw3YTNri5OBaNt1T0f8LorVjT3std8YIw+YMSNqCHV0BmnfirMfI2bxHfKhrkpz7QXSwN2HepVpB10pNB4fGDFee0/ZDQ2BJCCQOZR+7QItdgSFMA4QIrdOua3bZdRBBmQaHY5DQBUkuRO3k+nuaPquWKo68VI3/YWSNyRAvyKt6pr4TWSyQb7qLKTETG4IkiJjNJ18yKynTgLSp+JUr613Cwu356Yfp5/uT3SQjVdRClMoZI1CzcNQoe6+/BfJ1SqQFr+X4tzHcGaawfhDFZLoPyaTsM0QMAQMgaMInMZKR489/rfORJd9YVY67dzjd0v0Hla/CPwdqe+vQX1aR3q3ogbtZ7J5zQtLr8gWyNNJio4IE/3A19p4MpxjOeI6evcjyY1AOsTeveVnSP32Qkt1OUJ02lOzLV5rB9nNDIHEIPB+pKhGrx69ToBQVYknfNevu6n6TMF9N2R8IjxPqXL2CvA6LeKVRioybTj+ZYA/PU35ka8jT5q8J7+OHnELClpsPWDnh2lp5qZk5IM/k1QhKx5CX6orP0iwvyiZoKGyN5E1LK+jb+wehkDyEHg/UrzB500SMZLg6OjhV5HJprqt3pKpAoL2QYohSNFtbrJ2POjUpJy4O183CHdf39rJiTFWGWl5ZRma/1S8SUiLgLW29lJaWz/Cywk5Z9WRyTZDwBAwBLojkDkqjXQ/rE/26uwXVcXAR1WBRR6s/fwcHgypHibjOqXE+o5q+tIFJAIHMYZRAvCQnqcdmznWXHDMadhLtCHFYHZ0VvKzn0h147U0d9dAjK8kO/UJChAPAfNYOr/gPexwQ8AQuPUIJFZSjJ10OomxX3srRBJwiIhS310BKVbg8IEk1qgarzUUtTagbVeJgI6N/KiU7/9CpDwjHlTXdaR/a278KF6rarH7Vwm2XcsQuGUIJIoUY2vQ6V6r/ddDzGkatPbhZIMaiijGnM6WNQl4CpVFfNoRNWrRtqtCgAulIFWU0tSHeCH1G5Ik1HYWpbKG1G+wLaYCVs9ob85F56rubtcxBAyBJCOQKFIk0O0G0zDHPX1mXezieMRwDKpNA9gUpRVIDhJiDuEYYaagdMiAjc5XkgfUjbWd2ezjFxqB6FmEvYzJ0J2fS2ZkHkltUN9z7Zk0N19pvChDMmIyRGAR3XRwltHjjfWf3dgQ6BMEEkWKLhVa7DmoitOIJPuLGCOXmcjPkQpSlDhC/UTNe4r8p3lUxqCkiLLxUOVdOH9CnwydPm6GK/eCEJeMFBDIn5l6omXRWls/SWPtuRZ4zqAf1GMV/7mRBOemyD7dx09mTTMEDIEeI5BJmioyXswzti92q9cw/z6a0I46/aQCH+nG6GTDqiIpcOEwHG1GxEfpKG7a/qNbHz3P0aYl42+XvjANKbE0+5H4q99Jc+stSPGlNDZ/lGJpGuprZBPS1G+uF9hvifs9JKMzrJWGQGIQSJSk2Heq0vN2s9+EB+Q6ykZVINpmNRwjBTuXbpZu7LwoXvA4KK0hMQaonlGc/gDp31A9A1VeGluLUl36HuExK1iKsLh2HMrRX9qGCz6sHW4IGAJXhECiSJHTl/6nAfwJmsTg2NHaXUWcHEgR+TnDwjgm60JU0ihBz3FFg+76LpOGbREB/KP3pDD/BWyL96RV25P68jewL34P2+JOpDKNFd7X1zK7kyFgCPQnAokixaMQOqVjf5OKqnhbTfHheZqCxJgtDElmaAIekWWEXNKi1UV1evRB7e9LIRDn9Q3TZSlMP9EKGh6SJTRgW9xb+EZ8VtBAhRc6O7nsqZe6jZ1kCBgCtwiBTJLSXXGS00TOakLs5HPnKtEP/eIo2sm0VPdmKNPC87SFwP0Q6d0yDMWApOhDjcrCzUy5YrTYm54jvGn849OOOzovhbtfSG3jDeyKL6S+8kxqS99JuXRXVaxhh426N62xqxoChkASEEi0pNiPADuP2Fi9S1Ksi7+7jKDxPdgT0yBFBO0jcD9AxYYAE7FJKL3rRabWC5gpCAuoIDsq6amfSXbmE0mnoYLfWZD6wh9RdPEdvIORXME2Q8AQMASAANK8JWlzlsRIWGx7nNLG2E8OK/Qc1faEkFSaUttaRtB+VfOc5oenJAvv0wCep87rtM/anqThcFZbIxGcbwGIMQfsRyEteohVrCx9KzVU0Nh7+3sZHppHQgUmUkjWr+Gsx7fvDQFD4OIIJE5S7H+XeRJiFJDP2RhV32t7y1CdVuFkUxSvNKHxiSwV5YLNL95pdsbFEHALJnRGBouSyUeSn/9c6y6y4PP+uz9Ia/Mlstwg/V6SnLcuBoEdbQgYAudEIFFxinE8X2eQNUmyb+IUVdDgOoMSLWrBIwaOmWxacOgIUbbIGxqWlJJiAccwdNxttGfZ1nsEILdLiFyo+flfSWl7SWqv/0WC9R9k79U/yyj7pXwXtmrLRdv7nrA7GAL9i0DiJEUSTV+pSrv2LWkamVIQtN+obCCRzRpLJUq2PIJE4KiMgYTg7aIOprLrCmFPdsK2mC6igsZdGZr7TDLDs3CC2oe0+JVU118iFRyk+QNp0fqlJ11gFzUE+hyBRJFi/5Nh3NvO6umFLWkik00KVd8512aHJuF5Oioh7IkuE5lNvNf/+4CSFOWjstNPEbv4ufj47G8jROPH30rImotQd9P9SV9ae9H66Pr7yO5oCNwcAskixWMTFMmn3yYtN5GyZZmgJY0dxMI1IIHA8zQ/NIOSRkPq9MFWU21qqtPrHfzEPcjkxUMgf+neLyUz+RhE6Ett4Sup//QbeKOuQqpnFQ30oGm1r7dz7G6GQB8ggOSb/UYqZ6OizjaH7HB98gw6j8KeGDenVZfqFuyJfl2L22YRjpGGk43PwsJ6TJ+0+2zIb80RKeitNT4UTk/5iccyfP9L2UF4RmN/Xfbe/Jukh+9KLluSoAAbI/rJOd9YP92aAWAPYgicgUCiJMXOZ3HONWc83TV/7aITMYEyNg6hGKnGLgoLr7FGBrxOQYh05kB8IjfzdLzmzokxx2pEXaGowi5OI6D/SyncQzHibBaJwl/D+eZfpQnnG2mioomKiiYuXn9P2R0NgZtDIHGk6DxPuXLv09U75tAw5UNHh6D96hrSna5jXvUkC6eOVB41FFM52Koc7Awut+36EIhz57oliSc+nG5k5LEUn/yN5KY+gm8qHKMW/yi1H/9RfIRpoAP7dZRdH2h2J0NgwBBIHCmyf/q77l0kWQRVVHtfEkFIRgpSSWF0VtIoLixR/UQjxJv5pWlYhla4ZGkp/IvwmOz0pzLx5L9IbuSBhJDuq+9+J/XFryVEKE0KzlKaiE+71VXU0DGIBY314c30od3VEOglAlbh9qrRpXoOdqs0kn/7IMVME6SYHYJjx314Og7r5Kp1+676vna9cyLQKZ27z+yfoXt/JkFlV/aeQ8LfdzGMTNpeyPylCDLe8Eit4UkyJKFabOk58bbDDIFkIWCkeIX9pVMsCNFDVfcQtRMb26uSwwTq5+DtODQnPqQSJjSn76lNqlcI/IUuFUt79BLmGiVanpTnZfSDv4YpcR12xT1pbbyS/Zf/AJV3SfIPhxhPw3QM2n+ZIIP+M9X3hWC3gw2BhCCQMO9TTGhcrUevtu63PyYo1y5k2IGLv1/dlsoO7IloWhpONpkCS0W5bCkahqExcLbdFAId+YRUbq9rbtR5KT/9r+I3IeUv/Ju01p9L9UUOHsNZyd35FTxSy+i3NBY1/I/KV+vDm+o/u68h0CsEEiUp9nveU6Vm/JPyGxJWVsWvbzEEXPIjd1E/seTKXZnarVdj+fLXRZ8EcH6qeVi4TH0mxQ9AishuU1/8vTRWvpEKFjMevs/f+5W0MmWE1KB/VcI0JfjlQbczDYH+RCBRuU9jCHU6isgllhr7AV7Gv3kIxwhbNfjXIGi/iSTTUJmWJu6KlysgDMBNovrvoXqQ/dD6QWpD22Emtu6yT+iAk8rCjjj7saSaqH8Z1kGKqKax9CdU0EhLGXGLhdmfSwtexBx+/e3wNUj9ac9qCFwdAomSFPnYBzagq8Pgyq4UO2IIykQ1EZ+YAjmGyGCTH54GOeZxn0Q6+14ZPv10ocOuThxVjF+MshGhzwrIjRog5dsuHKZqIMYWX14eWm9Pive+1OB/OkxRO3CgimWIzYnCYzcV/4kH9xNU1hZDYKAQSAQpHkiFpMRohc5prP9W6phqmSKstiPNnUUUGMYki4LC6aEpJEehy43buk2PAzXqbvxhj5ORs/MivhRbyEoZJRfYryn50p601n6QYOn3UoNaNRvUJH3n55IqTmpdTIZ30MoYJ2ToFqrBXLedCRscKTtKvXE4rAGGgCFwgEAiSDFu7QEh6of+68UUvE5TkCyalU1pIWifFd4zQxMonziOyTOreU77sNn9B+QNtehQHloE9qfKd5DxBvZED/ZG9F0datTm8teyjaD+QmNHisiGk4JXMWMd4xVPN0Lk4xzNYOSyH9louKGuttsaAicikChSPPEp+uQLKkdTsCM2dlelAWkxhxJRxfE74mWH1V5lW7IQCLGQ8Uqov3jnS9iKme8mI/W1l9LEq9GswZFqF6rUL8QbfYA+RmIG7WMjumT1srXWEDiMgJHiFY4IKNlQEWMH/y+ps41fHIaTzX1UZWBlDJswrxDqa7tUgAxEqdKcZO+WZCQzLHv530gVFTVaG29kD9lvwuqSlJBUPDP5kXj5GWgEYHc0Yry2/rEbGQJXjUCySBEqLFVBRmpIZ5u7KbvM0fvSntiSVnUTNRTX4cIPt5r8qOSR3q2BifVwRNvRc6+6W+16V4GAy16DNLawG6YKk3C++UJyCObfgtNUZekr8RF2s//m9yjBuC3l6o7kpz9XlWsKVTZc2vEurXCFNN0XJlR2Ach2GQI3i0Dygvcjj7/Di/Hrd11xNiF2npvZ6GYBfZq09tekAVLMMKfmMFSn5Wmtn+i2TjK8/jbf7FBL3t3VOYaLGyRaSFE1ijR9mZlPZJx24tEp2f7xX1Gg+EfkSv1aWrsbUtheh53xV5IbhzoVeW59r4DzOT7Y13jhszqH8SPlSd1l4yB5I8NafJsRSJak2Kc9QZd8kmSqURNBKIZU15HSLQMpcV6akBapOu0UClwAgE2Gfdqdh5oVC3YhU/ehEwMQXRrJGIY++m/wUJ2UvVf/LOH6txJuvZVKZQNex2+k9ODPpDj3uYTlu2DVkqaGYwFNjpPwQFIELZIgdbOxkISxYG0cDAQyKuH0/eba6Hw3I/VprEaFFMZvr/cpOIm5u6ZYMBh/UZrwa3tS31uDPbEKr8RxGZp6AN+LEZUy3NE4kipgrel3vS3u+y7u9wZqd7lebOHdK07IyKP/LGWkhtt9/c+QFn+LBPBvpfYWFTbWUZdx/nsZ++CvpDDxiQS5SWmpTZnjANlzuIDS/9rjqN8f39pnCAwKAiYpXqqn24TmJjiSYkPqkBBru8sao58ujUlhZA5SIoL2I0EgngIvdUs7qW8QoMYzoCrUG5Hs5McyVRyVfWQt2nnzO6ktfwdNwZZUQY6tnVUZmnspo4//XDLlGQlzo0gRl8e5JEWqZN3QsAVS33StNcQQkEwSFDedMpVmjTlQO0U9GElf19OfTlpQqxDuq6TIXaifSMeL5v6GeJkc4hNRP7E4Ji0AHMIrlRLlgTx7re29HlQG5i7a2Xwx/01K7YZh+Z7k74/J+MgjqU78u+z+9O/S2HojsvJctjYWpIIQjtK9z1Ce6gsU27iLRA5FR4nIp6oq1WPgxXR57AvbYQgYAj1GIHGSYjyBOFVqj9E59fJtqqYarIVSUXXEJzahQqWHYnGU8YklTH5UtjFTikYxnnpF+zI5CNA2qM5W6FLNeoPaizL+UPKFYUmN3ZXawn9IY+FPEuwtIX8qPu+9lcbqCynd+Rnyp34KcpyVIM3xwatgbJBsdXC3R7jZGpMzHqyltweBRJBiZ6YRF44RkwsnkOPr7N52j5MQaRfUOyMBuBc2JaDX6e4K8mUizVt+UrIgxQASox4Sk6HmxjQpoLf90+Orsw+1T7m5MRCNBBRaRL1MZLgpIndqcXhO6hP3ZB85U/eXv8X42JCw9pXUtxakuPajlGY/ksLkB0gBCBU74lhbqLzJGpsHS6eomDEqb545wp1t8vBzW6xkj8eBXf7WIpAIUozRj2MU6ct+3VTYOQJScKqJiVpd9pELs7a7hIlvHaoxTJWwJ+aQyaaVYr5TZMWkuvTWDqFBfbATelSlxhFJjxWlUBoVmborWbwai8+lhoD/+v4qYlm34Izzo5JicfojyU09kgxItJWGlImYyDjGkXcw3cKgji977ptCIBGkGFPKUWq5yfqKHiVFTIBc3QesigGv0yYmu3Q2h/jEKThWTKOqQjaSEk+YQG+q1+2+PUFAlQDcoFMNkOKPyeDzhaIUy7PSHP1YqivfS2PteyXH2ibUqbtwzFp/JcWpJ5Kb+UgyE4+gVp1BOE8Zl8D5thkChsC1I5AIUjyMinNnp/R1k5vak0h54Du/sgVPw2VUbK8g+TfKDo3dQ1aTMTSPE5tVZ7/Jfrq2e2sQfrT4wWenJEcIRgqFizEmsnMz4iG+kQSYh4dqbe2FNLYXpYb4Rtqic+tvJDd5X8pTD5EY4KHaHClxBsie45y06PF6bU9jNzIEBhaBBJJi3FduEroph5u4hp6HoO4mCgo3oT4NYU9MI6C7NI58p+mCBEH31kUuGgM76G7vg7ftxY6/6FlKNyssodJI9Td8XyXB/MRDKW2+UsmxuvJSatsrKjnWt15DzfpHmKShVp18jHCPhwhzvYeYyFEUqIZ9GtKjBnIYOd7eIWRPduMIZI6FN9x4k05vgDraqI2uLSkq9Vyb4OhuxHmJ7UiDCKtwsPEZigF7UBbxaJnylKpWYSBSSZLS4tE2Jg3303tl0L/tPvgYsON6H4OA4xYhGK1UAeE6dyQHe2MOpJedeSPe8gupwTM1tb+I6ipbUnvzb3DQ+V7Kkw9gb4RqFQSZQcrAVGFC0pkSjNiwVetvwLnlMEfr0ew4cYsOTA5Q6XY6rHXvMWPb7rjY3kFCIMGS4s12E2mOUmKqsY28l4sSoFRUHnGJudH7gjQm0vI5ZcWTTPdJ82afwO7eawTcCGA4DsYBnLPU4QoE5kOt7qfhhEO16t07MjH7mQTbP0l1+XskGn8ujY3n8FTdRLzjugQL3yLl6hxqHj/B66nkmVcVBZDDwhiuAW2EhoZwfPHlxhuJ0JVLjopZxZ7SIGXn/Wwq/V73vV0/uQe/034AACAASURBVAgYKV6q75ykmkYWmyYy2DQhKYZ+C8H6cKxAKEYqO0SfU52k3CqevheUFGwlfim4+/6kbv0aLYSY9xb9rgskei2DvPRo8FKIMAyfatFcQXLTCP4feyDjdz6X3cU/yM7Sd1Cn/iRZLLYEdsf97SXEPv4gOaheC9MfSGnuQ0kPTyNRBDxWQY4haj36HXZ2pgXg3QL8FycZPNCmHORfjYA9SEreJta+h9waaAj0CIFEkKJbCXMtHP0XqVB7hMkZl+WU5px9Us092IReoDLGOtzpMfWMTEl+bBYNZfaawxNlTIiq+jVyPAPj2/B1JLV1DINY5c/lUiyx6UgBWTK5Q5iBc9b4kIxOgBw//u+yu/yDVN79SapLzySAM05QWZHq3oLsvfs3aCNGZXj6kQzP/xyE+jGqscwgTtJ5rTIBuR8RHT20kcpcS5m5MWlai9swuuwZeodAIkixd49/+SsHCNqHiAiv0wUJ6tvIXoPqCUNTkBaHBeH7thkChxDotIG7RVGbNFltk/Ijw3uYODyNyhqsyZifH0Es4xNpPngHm+Mr2Qc5VjdeSVjfksz+MqpyrIMwX6gzTmnmiZRnn0Jz/wC2x1GVHgV1PFVGBQ+2dCHnFnSeljLDTluc2Sg1BI4hkBBSjJfbne/8keua+wY2KqvqiDP7SXy8glZNslBr5eF1KvnhjvJAaJqu2DtX5x2iww203G7ZTwh02gFduzg6WvrRhXN4eSy2ZiZkFB6pY49+JU2oVPfWXkll+aXUN5dQwhPq1dVvpLr9SnZe/wYZdWZR0eqelKcfYzzekXR5UkKo8xteXsclk5EfbB3qVrfPbI1tcOzToCKQEFI82j3XrQJya+zIGqQr7nSwJzsbb6WJGnohvE7zo3clN4IsNoLJ58bI+ihO9ne/I0ApzrniOCMB7X9Ud3Iv91AVmgKhBUgEAbdVhGfMydDEh8ihuoKk4yDIlWfir79FrOy6ePsrqNCxIpUdeLMufo0kEnNSGL8HO+QDySIva7o4grEK+yMTA+DlyPciC0v+7mIit8Vdv48ta9/lEEgEKZ7486MU1nN+pIsEKyLgX05QsP9oZTwk/q6sv8NKvSrp/DhMPPfFKyCLDZwnlDyjdmlR2XgewXmmsbrcQL3dZzmnGNr8ONZimlKVKseSOsbgLxBZCsWrU8ixmimMSxpjLjv7iYQIB2puvZMGsuPUUZ2jsb8l4faypPbWZQ/p5KhOTY/MwIsVNm94r9KbNTsEJ53cEFS2iH2Mrs9xyt+aJgnQ8dvxyzvknMP9XX6V0fmdfRUvJN0znKMX9ecS/XjOcbgdYghcNQKJIMX49xf/DGmTORTn10E6Vw0Qf/wqGUYXVkeZwNeA64ZmsalLaewhQjHuipcva6koaqViNRXd8PnZauZdfc8k/4puRDt7I6kgGuERAbm/DhOEG42wFcKxC5nHkUFpTEKQY2biCapvfIRCxwsYm4sgyWXYu5FUorqJ4tc/ibeLAsi0e5emNIFAbhjxtCRHvOfKIFiEeATpPORTpi6EJyta42HUpw9WcVwYHt26EOMRsuQRRnFHcbO/+xmBRAXvH6iTol/ZgTcqf3Y9++XhLpAOOWFxfuB8FfgVXYEHtQ1lwDwKzGZHZxE3RscGl6w8Jm2dFMiSSpY9a2Q/jzFr27kRuIiMxLGEZAAcWBh3Xjmvha3TCOvI1ndRsgrS4/YCfMEgQYIoW3vImoPcvC2oXOuQKjPZIohwFMQIkhyelezIrCadyJTGofEYgxQ5LGmQJPStGPd01nFtc6O7/UBHx/TR7+Mjjx53FiQXPf6s69n3hsB5EUiGpNjlaa5P8uL62El6ztbTEh92mxqcHVLNfUwiw7DZ3BMpT2CFHYViHFI1ucbbj7xLJ9qu90Yg9mql52qIpABMSI8VGsYliA7OXz4y5DBkqAnpsYDajq39BeRaXcMY3kONxxV8hpo181y9pnOlCZUgWc6KJJmCk04aZdDSkDDxD8I80uonyxWoqnXVi/Xs7aIOcfZbORtTO6J3CCSMFN0P8fp+NLF6iJMAvQHxd1CF7eYl1FNvJIWsNQWoTbNwiQ8ZI4avaXe0zRC4LgQcLUGKC9ziTTUTlCDpmIOE4nylhpCIfBLOOY1dCatLSEuIRABQrzLxRAuvgB6srAcKcwBzsQpsjYWhMbymYBaAow4WfGlIkCEkSw+1IgVSpkfnH/wmYtUvnzcm6Ot6druPIdALBECK8cTfi8v34pquvYeFsd4+g8szicmGTjaohFFbfiYhvP3o8FCALccrTuFB4WBDQozsh8fyTJqHTS8Gw8BfU33NOPBYx1HV/PyPKeVir1ZEQTIZOV6ZPAlySkpTH0keRBhAUmxAxaoVXiA9tvY3YYPckRbIs76GUmjrPyDeMQ8JEjZHqlZpfxyZUzVrqjihjjoe4ilTIEl8UE2JKlkptR4a7yfTJSVOfhvb7Nmhx3wGBr6XDYDrRCBRkmKshrmoOuZ9ASUBh2FTcigmnEKe0xZW0+lWQ9KTKA4Ld3cpDB/kmlRmxAkHmbPe9+Z2viFwCgK6ONSi15QQdejpP+ropWQZLSLxRucZhmJ4TC1XdB6smfFHkkKcrcCL2ofXag0kWUO1jjrskH4VNnMkpqjtLkiIV2opA/MlbZEjcNaBLXJ0TsOQ+MrQDgnSbSFpgAdVa+g5O6QLT6Jqlw07aM6B046zQTpidEe451C1y3k2s9OfByU75gIIJIoU9Td94LDOX9gFnvQSh8bSnoZjUKJGBpv9ledYVS9hvvFQQ3YeqtM5qJMQm6htIRm6CeB40875I79EO+2UwUVAHcAiYtDFG8dpNBaViJRcYu9nfqYXKUd0Wm2EKVTdSGXwF3xqsiO+FGaeQp0KiXFvVerImtNESat9qFoZBxnCUSeAHT3Y3sZvYEEqK9+pejaNFHP5oUmsDV3YR2ZoXAsso2SMllDzGUoCj9YU4nn5TkUv2+3CnJyM6HEheagb+VztHZYacXDH+HU/ebJI8brR0enE/TJTCMNo7S3L1sKfYEusi59H7kmk1soj3qvBHzvbpj9slwj8BppqtxxABE5WTLbBOO6UxtHauUhDwgAlVIRiMP9qBrbD8gMpQjsy/GBPRpCU3N9fhZp1USqbkCKRnJyxkYL9YQ05WavYv+bJPn4HGahT1Xt1mLZ2JA+AV3a2PK2JAzJQt5KEw3RRVa3uno4eqUBtL3hjom8HgVBFbMQ4gAP8Bh45YaTIVbB7OdvJ4bXlVeOnSbydoRCeprvS2HyJ13O112QnHuH1GCm0hjWui4TI1a5WJzDd6VV3hV3vChHoJJcoPYBeXT1K8a8jJwxykFzLQx7VDGyR8GbNTcIWeR+SIkI+WFi7xXhIlLyqM/QD9kgfqtYAKtcQHq/B9jtIiTlpwu4uKJLMZAFZJBDID0G7MgznnaEJycJzO8QxPlStTGCeAim7ZAWR+5AR4RX2ul3qvAgkjBTP+1hXeBzmCa2biBRau6htl2psYdU7JqPzn+LHPqnpt/hj5qYOD+e1hVxhE+1ShsBlEeCY7Sxp5tSv+Bfj3smSWOalMP49SHLwOKXjTSqHEmlD96UwV5eQ6lSGfVS2XIgHnHYaewj5QDk1GCjVszWF9xBSZn05K3uQElNQq+ZQS1KQNCAHtWtuBJIkpUk49KSgjg2Qzo5kyaLMXPw64naf+JznkY4vi4edZwgkixRZyT7676DrrlhYVP89XJOeppRK6XTuoURUc/ut1DeQGQQ/1PTwfcnDyYaJljWsPy79g2NDlRLddGLDyxDoOwRUIjvpR+O+4ejV30B0nL6TPPlrUOmN5ajwW0yXNCYyVaQUWJesvy8lSJE+SRDE2ILKtYlUc61dxElWUIy7XkGFj32QJKTKfVxvMyt1SJIhEgV4+TGoWSc0eQDjIzMgzHyZzjtIIpArQ2hFth0tg8Upi0SpVn4lTNdOtosWU24uPEU/sr08outP8vDOYx7jeoHzb1Yv9fxY9fORySLFE5B83wK+LlsHFTfqzI5/fZTvif4KkDMElTDqS38Sj6ohrGLLd76A2eUBVrRF/XHqFjk0GCGe0Em2+5oR4PjtwgRddh1tWDy5t0mCGhAuD9sbr+0kNox/5k9FTlYwmkqRqTIoc6wpab8pGYQwpaBWDfHbaSF5fqsCKRJOPM0KYiMR/hE0a/h7A5IlbJMbnjSRvi7MQvuCeEgP+V1ROwsS5CQIE9l6oKHJwDbJTDwMA0khzCQF2yQT8tMe6gI7IsLXt7iNTrqMlwL8xTpVMT4csOVJC4Wj6Njftx2BhKV5w8+QK1Z9ua7hm36Md1yix3i+y9TB6+CnD9tgnPsx1YCnHTzwGkjrBtcAlOaZl6G5p/jRDuNYBvTTlohz7Md1CeTtlH5GoE0T+NSFM9qke/ArxE+HalY8VbTcpm+pFzThnNaQTAuSYoPqVjjuIKG+gAxb1W0kMAdRVlY1+44PrUyI7wWerpJaxMnI1woCbCGrDokyi8w7KUqTsFOSHNNwePMQEpVGOIgH+34IyTNgOAju6xa7/D3zd83/0bBo8aqOOx2k6frhHCuG0zpM79EFqNPOse/6DoFbISleJaqsUM4fC2sVeEEdAc5LsIV8BzXQBoKVR6Q09ynyS95FnlOW4LEfwFVib9e6bQiQIvAbQVxkyNhISpL0TEXNR8/HshPJ9PPNhhSgbvXrIEg66ED92gIh+kqcsElSFQtps7m/i9JY8ID1oBqlhAjbpAfbJMlQXyRLxE96IMsMSBJGT03Q70GbwxeTC7DKiFYF0VQBZO6YwhxrUhXrGPRy/WCEeDnc+u2shJGiW8kdSIlXyEnqNQoyjCwQeIdUCCmxjnI8NbxScLZJj8xL4e7PxQc5qk1Fm/Oeq8t+GxHWHkPgyhCIZTEnSbpFJEgJKlJNE8xsOGqjR77VoAGbZENChDuFjYqSY0DbIyTIVhV2SUiUIaRLxkn6/A6E6lcrqEqzgmQEkAGZtSeDxAT5EsKG4S1LNSteapOkNAmSpBNPKjcK9WxJ87mm6MyjqldWBmGDnPR4ZY9vF0okAgkjRQzbiAjV0/OKt05bg4csHy1UE6itIc8pVq4ZrEILsx9KDhlAGimsfNX2yPbQwG/EeMVdYZe7RQg4+13nb4S/HMpldNwhFYGQoHnhi7TkFX3JYhEqIEqIi9ICETonHZAiMu8w7CMASfrweEVGc5AoJEpIkwFIlY49/h5Vr7hfGr9oSKgpkGCGUiMI0qPKldVBKFWCLFOMnYR6NgRZIshSyVWTDMDbVvXAqgt2c42LmuR+bT7+j5+p2+8/np+Ofteetw55/V79dHaLRtD1PkriSJHw9IIQOcSdjYQSIH7GWKXW136AlPgSPywoRsbvS/HOpxLmkfNRfxOOFo8O+evtPrubIZA0BJxK1f3WYMmPfkBx9hr+CkmSKrmRJLNIJlAAfQ7zWPzmQJae2iZBgjUQIpx4fCxaWTeS6ldKlFKvKVGGsE8GSMfYgscrs1Cp5wDsjR7CSigtUnJUooR3a640o1ImVa8pEmgOSQhwjECi9FSiRMofpK+jUxHF3JBkifYwsxWfIdYyud5wrHnYvBLPFG32o6e6k025z+mo2kTLPfzPZpjrHuGJIsV2xourJ0amZ6MnG4en19pD+MVrVAz4HgvVdbiHw+V8lrbER7hxDqTYOXSvu8vsfoZAkhHgJM8XrfbYYo44JClF2hd1YHPymf72cYyqOinVZaEKLc9qOJQHD/E8pMqiEiWy7IAEQ9giW1S/gjiVLNVeuYU8r3DwaVFFS3sl9vMWbA5JDpIiiTIkUeKlNkq8Mvicpcerho6UlaxD2ClJsGmeg+QdnDlCSJdKhLjWgVf6wQPGfRaTXLwId/tVmkZDXM5aPqo+rAJkxBhjdz3viSLFXkLipE8MVKxEfST9ri19q3kfU1C/ZMefwOP0Z6piaXHMRwO9NxJrL5/Srm0I3DwC8e/HSVIxSRxu10m/LZ7juMKxaMhcqlSRCuMdQWJDMypRkuhycOaBGAmJkbGTyMIDadLX1440IF2maJusgyTpEYukHPSQ9eEJy+ohB+QEossgRtKjkxAce+jpSvskHXqyBRAkqoWkqYLFi7letWIIJEtmA6InLsRM55FLiZLzhjKwsnAHcXKJgH36YNE7Hy8+/Oa7bKBaYKQYdbdT28CZBl5w9aX/kMbKN5qtI4dUbsX5XyJG+QFsiUhuTBebiBjdz9P9OAdq1NjDGgLvjUB3MrzoZR218F86ypFHmCqOiTcgu0GKS1O6Q7xjdgiOPMxMFSLumA49TdgmmWgAZbL82r4I7JNNSpVMes40dvgcsP4kjvObKCwO0hTZFIF2VikNUqKqU5ECj2pWqluzBYSM4JUu8G9HoMz3GkAtq3ZN2i5JlnjR1klPWFXDKvs5/RMlTArIvAdplM/FKiinbSctIE47x747GQH0ztUMzpNvcZXfUIdPEmKbj7b76N8Xu28ANU0anm+ttedSW/yDBPuLsC+MSm7mY8nPfoJEySjYSpWPpp7CCvSK73+x1trRhoAh4BBw4pQKVpQQaTfUOQJEgoTmYCDuAflAelMpE6RDX5kcjkWSgQwIB9QkaZwbQq2KApNQrSIcBOnpXFgI6ktCsmyCNDVTT4POPnsIJ4GdEs54AVS1LapwcQ1SF+6IW+KKCBkJcyizBbIUkDLLbWWQ2o7J0tN459ySAnFSsszgOEqXIZx80iwOTcLkk/C6sWRMcjw258Rj4Ojcd3ShfvR7nnfa9eLrXuS9857d7neRa93ssQMvKTpbIoYbbBLVrR+l+vZ3SPr9GgMb9eamPoFzzRdw7x7XIZ8K+JOi6zYtAFyNqlXENkPAEOgLBA5P9CRHEqWqadU+yclaq0qSJvEvfsVKoCRNvIGkAjrWIPk5l74eKuPkIi/YEM49LhyECdH3HGEyphKxk0w6EIAsM3h5sGv6DBcJquLVKsj/ui6y81bNLg066NBphy8kGWDFEKpe03TsiR18+A4SVUcf2jWplsXxrFHJ+UYJP5p3aMvkFge+xJ4OcTo+/RJboNV7eklUbUR5v97eK36q3r0jo01yJvYDNYHq590A0YEfDeyLwKTVvTFOMoyTwgcfsVD1NyDE5W+xAkRB4cknUrr7OSphPMTKDQOSvyn2va4H+bmN22Xuf5G22rGGgCFwMgL6s+SmH5yznGM5EmL0lfvx4ncbk4ObyPW0mDj1ElRpRjIZQzOUTBAuQpISeJ5TBQuyBEOCX5tQq8ITFmEjIYgQRktImCDMKtSuVL/ixb+bqE/JBARU2wY4J9WoI/8rSJRqUahhWyBLZuFhUgKIjerE4zGOErZMxlNmQZqqBqYtk3ZLJUynsmW2H49SKW2XIM9AE7dTNUsJmapkR6KBarj4fFjQ4xm4qOeLs5j7ht9B3o0XCQ5MBU8V0zGQuoc7Ixx1v1tUcI+DmypgCg3YE53nvHRj7N1x6uUf9U982X5IiJI8STEa3DGIl33noGHXqJ2huiSVt/8mjXd/0Mz+ueE7Ur77SylMP8WKDaWhDnqOndoxGA5+YJdthZ1nCBgCPUGgY0LW65/yWz00ER+a7OM5ncQSWZrwPfjFXRJzQarAxTVJAxM8vGDTeJEw0yBAuLxCJQsVq8ZZ0n5ZhbgISRLvJMuQBIrPIfK/QtxE+AgkzAbO43G8Nq5JUm7BiUEzAjEshE5FjKcEWZIQlRQZXoJ3VcdSZRvZMFMd4SSUTplUXW2adABSiRNEShpTr/vIcxZznXrOkqyU5drE5p76JCzdCTExUp/G81Whja8oxcb859Tc8Vx6hBUPbnJzH5JHiuwT7VD+fzlAnazH9REGcmtb9t79u+y++VfYEZcw5pjw++fqbeoVZ6Bs4cBxG+97EKh/yo/s5rrT7mwIGAIHCLzPb/TYuU4acmzh7qDzQjwFkUzSlL5c/DJlsZjYIB5KBhJiDoTJ1JEhNFG0R5IwfXi+UoqkB6xKmXyHgw8TpQf0iqWEiVjLEERLm2cYgExxPdowab/0uLin445KiUyll1OHnhTeEUuiMZlKnDmYgyBxBhlInZrRh/vcOyVLkmUKKtqQalpqxkiUmO/UoSjaHIFGD8znxfesHcv5lN852nO2UEqdnDk11ERnWv7rsOG7nhFp22K178GNbvhDIkmRmF2WEPVcVZ1iRYbA38bKH2T3x39B9pq3Gqibm/+55O99IYKUbgGTC3PUR6zYb513w2PHbm8IGAKKgFukh9QogUwgKx5wpS7gkVCZwhm9Yp0qkipLSpcgCVbhiRKmMyOPOvtQzUr1LMkSatmgAfJEWEmIGEslSUqXkDhbfCdhRmpZxl+qChdhJ7wbyafFmVJVqhACWMmEkiYINM2X5oVlFh+oX5kfFkTJF5Oqx6rbNMjU03PyWjSa0iaz/igRq9RJcsRnODJpFiBQoVPHxqpRN1M7dydSOUnVmb7US7gPt8SRoq5HuqhQ2RHUYx/WUXeTJLlaaUHfvyFNhF3UX/+D+Mhaw2TBuZnPpPTwLyQ98UhrJbKaourZ+7Tz+nA8WZMMgQFEwK2aVZOk074jApWIuACnxKWoOGpwf6DmDmO7mN6O59ARSI/gu7P1pUiWVM36oFnGWwY1jaUMactkyS2Qpaa3azkVLD1jqYoNQIwphpxQTQuiDCCRUqUbNHk97Mf1WpRaVT2LDaQWRqpZSpcMNaHU6EHapMSZptQJ4iRhUm3rZVFomnUwQajueO6jbZOESTUv5k0ewxy3lDhJoFwVwF7LjEDR00Urh0ji0Kfv7cZeOI9gkzhS7AZbPKB06B0ixsOkqGsUJhyurkgL2Wr2X/+LNNef68opP/mRlB78Z7x/CKM6slqo8I8rXl+fdXs022cIGAIJQcCpBTnLcOaIiFI/OxVkPBvxm9jGFk8vlLg419Ablh7x/COAGlOFAJCNCB194muCizhDBbRjQq2Kl4fwExIipUaIkO4zpUY6AqmqFsSJuY+kqnlk8Z3bB7KkOteH3EbypeSKc3CwI2SSMjaqOp09EuKHJnQHwUUSI6VHSo1O+qRUycTscAwiqWJu1fbjlYry2zoPXMSQMjctX1SjKnnGL9bJdPt1DlZSxTv2OWcgbZG26wAR/IngANfO6Dsec2AvZvv1BHeGU+wqunodtYFGW/JIUfXQ8VDiyqpjc+NRHzPWZbcHKtYnXGXtLUhj8Y9S+en30lh7oaua7NznUn7waykgJpFZ9F1pmfi6GBTGjJ0o22dDwBA4AYGYDLt93Z61HG22p3R+4ybneKrh/KWSDXa7yRyTOjVkSpju/JBltCDh8Z5KsnnGNWIXD1FSw5lKmlTRwmOWkiH2NyFhUu3qq8RJ5x6SJBIYRFImHYMQnKnHpFQ9i2uoapfkCRLF9XgenYZIyJRkQxC0mqWUvEArtE9SZYv52sMcm6EEqRInpUlKoiDRDFSt9LbVUmCRhEqPWz3G/c2FAY9JK+mSiCltUrLFdZVII/LE5zTVt5RISYARqbIt/Ez94IG6VlMHUqvoqqOkIL0y6UMsRaL1nV3VrSv7Z59TjbrBohpUjCC3EsAzcADg5Y7hl6pQdQMDWSwEqoXWzoI0l76R6ruvpLnzDp2CAQXJcOiD/yL5qacqIXLNwIEZJ+t1T58cjPqnt6wlhoAh4EiNC2vOSUc3zmUdc0vHIbrY7zxFP+PYiDV1+uv43l3JyTu+XpLkgA8ko04xiF+xvKRSLpb/kV3TQ5w21bVaugsv2jcZPoISJfib0iMcgmjbpHMQCLFFpx94zNKOmaKESjUtjwf5kih9Sq4kYuyjFEu7aFgnGcHOiWYFJG0+AF5KWEpiTtWquWRpryTJgTA9EiNIMqMqXZKtcwpi3llKqLRxUkp1mYL4nVPb6rl4uUgDXpuLDNcGhsJoQgeofdOladTfHEfbnIiVPEmRndpla5Oh+5KrpYx2MtQFMDw3Vl9K/d0fpYmMNYLEwOkivLCQqab88K+lOPuZtKgzJ6lGg7RTODRK7AK47TIEDIELIHDWLHLS993I9Ly3PflcpxQlEeEYSnV0tsFlHWU45S6J1qW0pDGJ+jMnaaqKlS8lzcjRB+8BM4LRlgnibKljEG2bVOdCqqRkSqch7GPoiZ5LCZQkive0hrQwBpTXBdmqpEvpli+SaEpwlpN9uJSgRMoWqeTM53SSNFWwnkqP2IfGaykwhQHLgGi3EjEIOEwjNR8KXpfvfynp+V+p5Mgtw0snZdPVTdRwtrmtq3cPw5WPqhIAML26Ug2Q4fZPUln6QeqL30qARN8UJdMjd6Uw94mUnvy5pJDTNPCgr0fwkdMzM4UbMcWVIv1zN8eeUzE7aXyfepJ9aQgYAobAEQTi6bkncwovTurjxn/5gpKRhEMmIRlxL+ZMZ1LiPMtak3AO0o+Yb/OchZ3rDNWTHlNgKpFh/lWVLV4kPiU9ty8FVSulSjoB+fSmBVlS0qTjkHrTRo5D9MIlmbL8F+2dKnmSNHFNJVBeE9chkcbzPu/J+2jLW24uR2oWzO94GEiJ/M8lFmDChDxugcxD4IP8fBuJC0mK7JfYqQUfHRvrh5vf2K40YoDSLWaTQC3E3VXZX30mO8vPoTZd16reGQS3ZpCpZvj+LxGL+Kn4Q9OCNMGqZWBnOsUslxMk1lhmjJ7NiaI3/6DWAkPAEOhfBDpVTFfZyp7ILjQvsZExMTolrIaLULKKBANY65R0YuL09XtujlSdfpZCBYmHL14RBJl23zv7qN4Ie92DkFOh/JQijie5qYYXc67GjpPsIlJVeyY+ByA7hqmoLRPvJEk6CDlbJz5jfk8p0ZJEIYXiWlTxkhhD8AIzEemcTlMar6etgVRZnpLi5EO01wlW3HsxUoSHUguN8Q8kKL3yObeL9qoDsfPiDWZ7YP5RiMc+QKqhmGhlH8l52SZmiqhsSAtkWN34SWq7KygNs6qZ7uE7LAICLMwgddudz7QuQYv/fAAAGdFJREFU4n5qCEkkADQ6oKmietxh7Fp37wMpmjqEC2wXliwvcG079OYQ6FwQHsqCcnNNsjv3EQIqgVxoO21eac9/1JB120g27a3bMcfn0G7XUQ1cdCiveXj9z1kw1sS1r0fpy5Ei/8X3qsZ0AiRx8A+aE8+lJEoehi9wLEk2vm5s8qT3qFODcg/rVPIoYIo4T31xy5JWMV/rkfiOREpSxRxO4svq39zNf/A9pUtKivg3liY50/O62lsILWGSdpflB3/jtDNJMSaIAIS4uLgoC4sLUqnQZZciNq/aiy0CQB+9vdVrNdnd28GOULY2t+S7b76RfA4GWdZLQ2b7oA5RGCsFrhi4mkDNFhxJYywMtI0JyWzCsLq/gr9xbJRMF9ZZ3CUeXu3VgrsrAO7dQ/YCOLvmDSJgY+UGwU/orQ8yZB1p/8FYiuafmLSOKawiAeXodS42Fh2RsAnu+ofnXdIX97QXhTFxto+LjyFJOWKI5/CzO+bEZzvx1Pbio829bEHnPeNvuJ8PhnMOzeWO2eisMzFZkccflCSXB1/gOGa8PXVzVSRg5ISH0fLKirx+/VpqVRhCsV0M+Ii9T73b0Wu2H1I112B9vwX9MXbXalVZXQHxQU8cIjsN66RRf62lnULExvCF2B52csDke/sIGkW7AxzrxtHRBz/6N1cWx/ed0Xz7+hYi0DnO48+qEoqG56Vtz7cQK3ukiyFwlMzis+NxdtYcG59/9DpnnXexVibl6PMScXtez8BTdXe/LjOzdySHhAPcziUpkhzS8OIpl0oyNIRM7fTuoeQazwpnYKbBqNiOrXJOOc9d+rDEGKCSdiVgtnmIy4wvzCEANMN4lbJeW8XjiMg0ZqZz5UBvI+zTySy6r1bXPrQdJ8HBHFyndMxAfRWNW4wTLsaorudYzmQzUswjFVZkcxkoSOxhrwWBeN7hnFWrVmEfgzAAM04e0kw2y7g6p9WKNXnHG4V57qq0XPHEfdJ8321iP+nY4w299j3taT9EmEdGCkXUtMRvmhsxO5MU9YeP/3jS/N15GR4eFtr2AngQxRfp1VMdxXUP9sNnz57J7s6OjIyMyP1792V0DMU6MVjaGRBiouNK3g0MR5CHBxH78Wj6NkeXXYjxKHf26oHtun2HACclH8b69Y11efnqlZLj9PSMPHz4wE1O+H102naOjtm+eyBrUN8g0I1L4sbRqMPvW42m/PDiuayvrkuhkNc5eHZ2VidzbvHYOzrudN4+PpX1zbP3S0NYxLlQKEipiGLQEYhnkuJBJyEUgkRESTFwFlGVuHqjYuzOQhvrG/LmzRvZ3d2VoXJZ5u7MyfTMNOohRpkN0J62AwQpjnE1fAJ+dqToBlE0Wo6MpK6keGHjeb90t7XjvRDomFEa9HjD8Hn79i3s9j4WhmW5d++erjAPr8Y52Gwmei/cB+rkw5qww4/uxhKlxKXlZdna2NRF2OTEpDx48OCAFE+Ci0JiWyd20lGDvf9AkwiwNBtOtJ2bFGMxnapTjY3kSiYinF5A221qYVqgmIRVzMXfWRhK+blNzvEKKSZCNFLHlxuAaP0Jze12Rx6K44+pWU+4hO2+NQjE0xU5Lh0wwwYzhPDxqH3AKIItgrkbO0vrHF2t3xow7EF6ikA3iS4eSxxncTA6xxrHHKVEjzlDT9muTHV6yj1uy1dHBbv3Ct7naqRXK+OTKCruiKMDiaTt/EjpeHO0uyJi7FjFHztEmbPbRtXsWa3pdp7tSzIC7HEdRx3Dwo0DNxa6OjjooDxpHCUZDWv71SPAxXs0VroMGe5y4819qQt/zkNYkDkR4PQ56ehEf/Xtv01XPPy7PbekmAQIDvTrxxp7eAB1GYPHzrAdhoAhYAjcJALt+ESbsXrbD4fxPV0G721LrujqFx8wp6+xjjTLdGJX1E8JvAz7vkv/n6w4uPhYTCAq1mRD4FYjAEkxOT9kpz6I1AmREsH1zkWf4fzKBXfli17/Vo+ZAXw41/+quIpWVC5RcnstT1Cc3d3GygAOkEs98uHR0+0S0VzXsQpT5xAs1M5e2Ns47IboefYlTlLUrj57RJzn2e0YQ8AQMAQMAUPgEAL9a1PsqqOCMw09/2hsVsMz39UVtmdbDy/dszbbha8aATcK1M/h0LjkEs1GyFWjPRjXg16hQ5g7yZnvwK0mGmaxjHjU0fAoZjYqjyJy/r/7lBTZpV26tYMAOSjOGhjnh8GONAQMAUPguhGIWbHLXNelKV3lhC7H2a73QwCkeL4Oeb/bXNXZbR17vLIiMZ7fQnhV7bDrDAYC7aV8PN6YBEI1FReOdx0MxOwpL4cAQ3xOkhZ5xcvNcUma2y+HWy/O6lNJ8aRHtU4+CRnbf/UIxBMRA6aLSAU1PDIqXmYf7yPIudvOgHH1d7YrGgJEAJlWMhlkEhuW4aGyFJB7uoQsSgfeXqeCZHPlqfCc8mXCSPGyK6ZTELCvDIEzEGBWkdGxMfnwo4+QFLwqMzOzSoqnrezPuKR9bQgcQsBpvA6DQumRmWvm797VlIK5XE4mJiY0w01bcjQv06seSokjRQVAVaa2GQK9RaBts0bS4GJB7szf0aLUuUxOVahMFnG2W31v22hXv90IcJyNYUE2PDSsi7AsJEeb/Xrb531JiqetwI861xg59naADOrVD48zjDIEJnKlHm/d1ucct0fr2g0qfvbcF0PgpMUVxxRznTLHM8fWUdujjbeL4XyeozP96tHUjRjb+0iFbTrs12c4TwfYMf2JgBtdcVmoDieIDjaMJ7J4XLoJqz+fx1rVzwgwvOz05b0jP45D5uRl2T53TufY63zCMy7Xz2DceNv6UlI8DZXOFZV1/GlI2XdXgUCIuqG1ak0q1YqWTIvLzVBqHBke0WoZthkC748AqruC6xqNuuzt7WvtxDLK47k5zhFmvd6QSmVfxyNV96wBODw8hGpBWdy+m+7i/Vs1iFfoY1Ls3slcGXGgGCEO4nC93mfmGGtgAnrz+kfU8XwbKSfc+JuempaPP/3EFSe1Cel6O+YW3s0HI+7t7cnSwqI8f/5cHjx6KJ988klkQwyl2WzKwuICxuJrrSdLWyMLvj96/FgLD7NYrm1Xg0Afk+LJD+hUBjYITkbIvrkqBOr1uqyvr2Mi2pEH9x9KJkuvUw/eqKOSi6qfX9W97DqDikAolf19efXypTz/4QdZXlmRIRSyppYi3jY3N/DdM9nHcQ8fPFJ169u3b+SPX+/K+PiYSpXmgHM14ydhpNhderwaKOwqhsBhBDjx+IGv7u+z09Pyi198Lrl8TtNz8TsWHm5PWzzXxqeNoYsjQHthpVKRzc1NuXvvLkomOlVYpxPN0tKi1GtVefL4kXz2s5+L3/KliDCNf/3Nv8rWxqZqLPQ8294bgT5NCO68rGJvq67v1KrTG4tTkc1F7z0Q7ALHEaBDQ8tviY8XgsOUIH0fJIm5J42/8T/UVgEoM37ZQDyOou05CwEusMbHx+XLX30pH330sY6rEGONsxvnNlWtQmVKL9SxsXG8pyWXxWcE9WeznmzvbOvx7XF4eKl21v3t+8MIJExSdCt0tSvG3ld4HlOn27DuDQJu5d1o1mV5aRkr+Q0NnM4ju80T2HIePnwo+VxenR64uSVab1piV73dCNBxK5vNQWLc0wd1JiL3zAEWYq1WA9mUUpLP59We6KN8VAbEWCwUpQopE246OAfTOYcihq0tzy4/XhJHipd/VDvTELgoAqE6Mzz94EOZgmMNV+h0eFhcXpKvv/6DFPII6L8zJ+ksvf9sMwTeD4Fji3sEy3IfpUUmjaC63oOK9ECtqjl4oeIHaTptGQ48dpH3a9Mgno04xWTpocOoErprd3s9lLTnGMTBlrxnDjXn6d178zJ35w7j96XZaqqq67e//a2srCxr2q1SRIpuDCbr95S8Prn9LT6Yy6K5jp6lmf+/vStpbhs5o01xEUlJJLVS9liW91QluSVV+Tc55JDfkf+Va07JnKZSmXgOGVse2SNxXyRuIJX3vkaLIEXJJCVZhPjBhZIJNhrdD008fPtKzHgXVOVTIrTp6KkypXo/hlRww8e4eyaSUHUtzrNaQiUpupusN3ueW63nzIMA7TjcuTFGsd9fNd5m38QTccSUdcXO6HvezNO9nqMIBBAY+lIEYYlEoTaFmvQMalI628DKKNKihxc0r9eF5+m6rdzi8yGzMVGGVBXqfIsrVKQ4OkUGUi+on9B890LPWjQE8FRpIySjhyTgEdgSmXeyC/VpAS7zHrz/qFpNUEqUN3eX/WbRJqHjCQMCfNEn0Y2/8PMYbYjb0E5Uy0VTKhbM7s4OAv37sHN/EfXp1jaShEO1P54CMwzzXsQxho4UrRZd1QKLuJge25j4QGoiPvFXBE1TKqQzBG2KhWLRZEGIewjTiIEUR/NW8v1c1+djWwvfYj6MfyUpJuC8xSw1JDxulPl2sNbKpYKpImzj/fsfhUALhZJ5+vSpxCmqpvTu7lDoSPHupq49KQI3I0B6o7cpnRjOWy14+UF1BcPiBtK77e/nTQ5v7zGtq3gziPrtTAjQA/XZswOTTq+JYw3XHgmPWonnhy/Ml8/HUKOeCWFu72xLID89oNno0gFnpitq43EEQkuKfKvipu/k47dUP98VAlGm0spmzUsE7Ldhy/F6cGrAGzzLSLG+Hb1RndpLV+Jdob7c/VAb8e7tbwztiMG8ulHYtfP7+1LXk4H+JMA0iw6DPPUheLdrJnSkKHpz3yvrbqHQ3hSBUQTo6cxiwun1ddnltZ0b3sqp0pK4RP+QRobp6rkNAk7Ko/0wlU6NSH0uDX0EkmNqbUN2WYb+ziQTXIv2Bc2OQu2L89+NUHmq8KbbxxEXBB5LWBWXz6T5MdAzFYHpEKAe64rxRnUVqrabbvlM0+rmBBB84PF1zO18T+MTcNIa1CfjNHhPagNJMTzgxeD9l0TcWDKRlMwO9AYUopQHVXjmMelG6LFwIcAHEzc+xIaONm4NLtdaHHpM3sW8Jz3gp1kbd3Htaa5zv23cC8aVd6/L9YYUbv5UfV2FPyCLm0PPNnkcmNwv4ld7D5X6lElvDw6emWwmC2+sHb/e2Lw/oqtg6BFFYB4EXJq3ec5dpHOmjWxzLwTBsVPtR3KUuM1bvqDOovpbHkvKdAQ3C3aLtPYWaSwxpDVepPHcOJYVjJb5JgdIkBtFhocoR+9eqXQ13IidfqkIXI/AzQ9cq6EjFTpphH/t/wfIucnfY6fbRnaVvjh/0GN3XrKyJpGbxxOch5NSI/r7v/726jczIRAqSZEzS8QS/BnirdSSOX8+8/4AZ0JKGysCS4YACYdEVymVzWpq1Q8TcC/R8svDby+CGn9N898f/yN///DHPyF8gB6Rljhn/W2y/WwVkEDWSohLtjLvd7qxMK6n8Uw2YZzD/d5W7V0RmA2BSeTFJNT1Ws386/t/msMXL8zLl68kFyy3C19DM4AYyXRjzTOECQxgX71kNCtJjv42p5cAZxm9/v5nQUvbfg2B0EmKX5uQfq8IKAKzI0BiGSFGfLhA8ukisvd8+vTRPEHmFG7U0FCdyjAA+zkiEuS7t29hzrCljCi52VJGQ9NMRHSwQ1J0ak/nWMLenMNSkOR4HacVGp/VTd+Nt9XPisC0CITK+3TaSWk7RUARuD0CLElUOP1VbIYbiNNknleSGc0XDA1wxEZP8CeoIsL8sLa00fDazg2OguUwzNNmX+H53EmMzslHSHcKR51gGIizdQbPkz7dxW8PhfawRAiopLhEN1unqgh8DQESC4vaDqAKPW+dm9PCqUnBnphMopgyjnG3ZGYrwvdRuogEFGeuTkmJ5yTIFemHxBqFSlWcb4QAUe6oN5DjZC2XUF0IFv30UEyXHqz8yCwuJFnScHAjuTq+uwBh9zxP6g2yLTMO0RN2GmL9Ghb6/XIioKS4nPddZ60ITEAgYjqdNuyIddgIz8xZs46k06fiUVpBImrPQ2JqFFtOr61JYvRms4l2TakxyYLL+XzeMDUeHdp7KGlEe+T5WQu2xj7Cp9Kyd7sd02q1QYoertVFCa6E2WaVB5zXbrelKkkX57JuIImY9SopiVrJz0mWIEL/+u22bUsSZK5QllHKZjIgaNLm/dgwJwCnhx4RAkqKj+hm6lQUgdsiMAAZnSPhdK1Wher0RP6/j5ybHZBVJNI0GRBOCnlf66geUiqVhJzYtoV8nFnkiV0DYVK2q4FYK+WKHK+g5FECia6pYiVRkbD4r1xCKSS0efXqJYgvKRIiJUqW5yqjb+aajbw2UuDZqkitx2sH5Hl6cmrKlaq0T+GaJMRmpynXJZkyP+2FGCeVGG+7JpbtfCXFZbvjOl9FYAIC4uQC5xp6lz55sm8yqMrQbNTMKuyIr1+/Nt89OxRiSyCbFMtoNRsNqDejZhMJqhv1Gmr7fRbiXF9fExtkrVqTUlspENTpyRfsJ/gcQ6mj71D/b1vOpfT3/qefRBfK4yTfbHZDpESS6YeTD+hvHYmw82gDeyX4jRLo0adP5ujjEQg6a54/PzSbImlGzSlI/JfjY0iiLSFuOvvopgjMikDMGalnPVHbKwKKwONCgHY92vGSkOQojVE9moY6Mp9/ApLMwF7Hd+gVUaWS+La2Nk0f9rxKuSTSXxzJ00l0XahgGaaxhTp/7TaqxeMz+85AktzL74ndTxJwoL2H8zvtDmoCbqE/kiUkRZArk3JQUmzj3IsL65fKMJASvGH//cMPJgqy/u3vfi8qWx6nWpZ9snKJlPuiREq21U0RmBGB8KSzmXFi2lwRUASmRcAmmB5IKAXEMQhYtO81oBbd2tqBvRD1+rCRdAYDD8QFgoMkuYa0iyzCXK2UUHA5b9ZBoCQ/ttvMZUGoKahfW8h245kcCG93bx9EmJC+6JBDaZOkSMmUJZFWoAK1ZNgzbUh7A9gdUymoY9En9w5I8n8//2wq1QpIdNPEQYwtlPSi7fL0pADVaQ3Em7HllFRInPbma7sxBFR9qktCEVh6BJzdzUpWHsioWYezDfY3b97BPpcWb1AXBkHnF5IUJclCoQgboGdewi7oCi6vwTGHO8mxDhXshemD9DJib6QUx20Au2GxUBDJbnd3z6wyKQCkTSYDoB2zAbJNJOIijYpnKjZe7+jTkbTxcP7x8S8i2fbxmardvb09qVBvPVmX/qYqAHMioKQ4J3B6miLwWBGg6rMKqavr9VHd3ZIMVad9hGMwBMKRYwOSXhlONJuwA25DorTEyUgLS2JUgzbqTTjBxCWJv6tqQymREmK5XBZv0fX1Db+grk0oXke/tCnSnpiF5MdQC9oZKT12oI7dxZjevH4jnrARkCqdbJg4QAYgG2M2+P9J6lN1vHms6/au5oXaS3fVlfajCCgCoUQgkEKGhNfutMROyFCMTdgFqdKkc02DNkZIjQyRaMMOyBhGSm/PDw6lLT0/SXxJOLlwazQbCNmoQwpMiFMMiUsK4oJYz3BeDZLoU2TKobeoS+xPWyY9T+nV+uzgAI46aXMGgqRXLL1TGQa5sbFucuLpmsZVYMf0n2GMVQyGbkwiRY1fDOUK/aaDVpviN4VbL6YILCACzO/m7wyMJ+HVIK3l4PxCRxtKXZQcqwifIFlxY/JvEidYSFLAkZCOP3+WgH+qTUlO9XpDnGZcjKKdOaVBeKeCENkXHWwSiVUb3wgJj/2SXGOwF+ZgN+xBlUs1K22HSbQjIVMyFEkQO8MiLyVTEHe9WpU4y0mEuIDI65AWEAElxQW8KTokReChECC59aA2pbqSQfCU/CglloolBNrHxQOVJMRjEvoACZE2RnqQUsojmVEaozRYq1UkSTgdcFZBaE7tSjIsw4N1BZ6mdJihFypVnvQxpbcpkwEwQQAJ+QxJBBjQn0qmxCZJZx0PY2MsIwmcGzPnsF0R9s0iiJr92vhENhjfHwpZvW5YEFCbYljulI5TEbhnBKRsE+x3jFUkWdGGWESAPSU+OtFkszmJPSS50fOTJHV+jgw4kPpIkMxMw3PZh9frI5vNmTjpZDI5n/issw4Jld/lclsm43uduqkl4ihRxQQAIF6qZkl8a7AtptJUyV6ILfHDxw+ISSyIpBiDo805yJikTOExl9sUFe9laTnqW3VTBGZAIPrnv/z1bzO016aKgCLwKBFgXJ9VRTJWkEH6JDcJk4Azy87Oju89asMjGHwfh8en/IX0yIw0u/D8JFmS0Gg7pNSXA+nt7eXF5ujUnFSvdrs9kOi2hGMwbtF9x2szbIO5VNkXK3DQAzWxmhBJMglyFGkUZElnHUq17I9qVWbU4W7jKX0x8lHeK53UfSIQ+fs/vtfVc58Ia9+KwMIjYB8BtryTleao4qT0RzUqCS0pdRQDjwoY8zxkl6ETDCXHNZAXpcgBEn4zaJ5hEzyfZEebIUMv3EZ1J22PkqJNpLqh1yhVrz3ENdKGyKhJxikyP6ps6BPWSlGXniN/qgeJk0ZFXpekGItbxZcL2ndONcEgfnW0WfjF+OADVFJ88FugA1AEHhqBUVK0oyFR+cdZdWJMDTla49C2czZDEtW4U/v4+cNrWBIeEuM4FsF39gB50snG/4oZbUZrQaIdCDRYl1GJcRxX/XwdAprm7Tpk9LgisDQIWLKJjDALJz+ktusK/VqI3PnjVDgE8LrzR0MoLEGOwj6pzyAJjhEiT/Y9cGQ6l1IoDqMrcbK9QtmjV9RPy42Aep8u9/3X2SsCD4bApWQZGMH1EuN1wwxKkte1scevcP7NzfXbJUVAvU+X9MbrtBWBcQSsq8340Xv8HJTigpcJHL/Hq2vXisBEBFRSnAiLHlQEFAFFQBFYRgSUFJfxruucFQFFQBFQBCYi8H9FFTmAO4H7ZgAAAABJRU5ErkJggg==;" vertex="1" parent="GdBnVWt3Ku-aik8DXqB9-4">
          <mxGeometry x="375.39" width="271.46" height="160" as="geometry" />
        </mxCell>
      </root>
    </mxGraphModel>
  </diagram>
</mxfile>
